<svg width="188" height="173" viewBox="0 0 188 173" fill="none" xmlns="http://www.w3.org/2000/svg">
<path d="M97 121.125L136.125 167.25L159.5 164.397V121.75L97 121.125Z" fill="#D2CEC3"/>
<mask id="mask0_3683_23747" style="mask-type:alpha" maskUnits="userSpaceOnUse" x="83" y="1" width="60" height="125">
<mask id="path-2-outside-1_3683_23747" maskUnits="userSpaceOnUse" x="82.5" y="1" width="60" height="125" fill="black">
<rect fill="white" x="82.5" y="1" width="60" height="125"/>
<path d="M89.3011 75.0503V53.4641C89.3011 49.7492 90.1378 46.5197 91.8112 43.7754C93.518 40.9976 95.8607 38.8557 98.8392 37.3497C101.851 35.8102 105.349 35.0405 109.331 35.0405H116.56C120.543 35.0405 124.023 35.8102 127.002 37.3497C130.014 38.8557 132.356 40.9976 134.03 43.7754C135.737 46.5197 136.59 49.7492 136.59 53.4641V75.0503C136.59 76.3221 136.155 77.393 135.285 78.2632C134.415 79.0998 133.36 79.5182 132.122 79.5182C130.884 79.5182 129.83 79.0998 128.96 78.2632C128.123 77.393 127.705 76.3221 127.705 75.0503V55.7231C127.705 54.6522 127.152 54.1167 126.048 54.1167C124.977 54.1167 124.442 54.6522 124.442 55.7231V114.257C124.442 115.629 123.956 116.784 122.986 117.721C122.049 118.658 120.894 119.126 119.522 119.126C118.15 119.126 116.995 118.658 116.058 117.721C115.121 116.784 114.652 115.629 114.652 114.257V78.6648C114.652 78.1962 114.485 77.7946 114.15 77.46C113.816 77.1253 113.414 76.9579 112.946 76.9579C112.477 76.9579 112.075 77.1253 111.741 77.46C111.44 77.7946 111.289 78.1962 111.289 78.6648V114.257C111.289 115.629 110.804 116.784 109.833 117.721C108.896 118.658 107.741 119.126 106.369 119.126C104.997 119.126 103.826 118.658 102.855 117.721C101.918 116.784 101.45 115.629 101.45 114.257V55.7231C101.45 54.6522 100.914 54.1167 99.8433 54.1167C98.7388 54.1167 98.1866 54.6522 98.1866 55.7231V75.0503C98.1866 76.3221 97.7516 77.393 96.8814 78.2632C96.0447 79.0998 95.0073 79.5182 93.769 79.5182C92.5307 79.5182 91.4765 79.0998 90.6064 78.2632C89.7362 77.393 89.3011 76.3221 89.3011 75.0503ZM112.946 29.2674C110.938 29.2674 109.097 28.7821 107.424 27.8116C105.784 26.8076 104.462 25.4856 103.458 23.8458C102.487 22.1724 102.002 20.3317 102.002 18.3237C102.002 16.2822 102.487 14.4415 103.458 12.8016C104.462 11.1618 105.784 9.85654 107.424 8.88599C109.097 7.88198 110.938 7.37998 112.946 7.37998C114.954 7.37998 116.778 7.88198 118.417 8.88599C120.091 9.85654 121.413 11.1618 122.383 12.8016C123.387 14.4415 123.889 16.2822 123.889 18.3237C123.889 20.3317 123.387 22.1724 122.383 23.8458C121.413 25.4856 120.091 26.8076 118.417 27.8116C116.778 28.7821 114.954 29.2674 112.946 29.2674Z"/>
</mask>
<path d="M89.3011 75.0503V53.4641C89.3011 49.7492 90.1378 46.5197 91.8112 43.7754C93.518 40.9976 95.8607 38.8557 98.8392 37.3497C101.851 35.8102 105.349 35.0405 109.331 35.0405H116.56C120.543 35.0405 124.023 35.8102 127.002 37.3497C130.014 38.8557 132.356 40.9976 134.03 43.7754C135.737 46.5197 136.59 49.7492 136.59 53.4641V75.0503C136.59 76.3221 136.155 77.393 135.285 78.2632C134.415 79.0998 133.36 79.5182 132.122 79.5182C130.884 79.5182 129.83 79.0998 128.96 78.2632C128.123 77.393 127.705 76.3221 127.705 75.0503V55.7231C127.705 54.6522 127.152 54.1167 126.048 54.1167C124.977 54.1167 124.442 54.6522 124.442 55.7231V114.257C124.442 115.629 123.956 116.784 122.986 117.721C122.049 118.658 120.894 119.126 119.522 119.126C118.15 119.126 116.995 118.658 116.058 117.721C115.121 116.784 114.652 115.629 114.652 114.257V78.6648C114.652 78.1962 114.485 77.7946 114.15 77.46C113.816 77.1253 113.414 76.9579 112.946 76.9579C112.477 76.9579 112.075 77.1253 111.741 77.46C111.44 77.7946 111.289 78.1962 111.289 78.6648V114.257C111.289 115.629 110.804 116.784 109.833 117.721C108.896 118.658 107.741 119.126 106.369 119.126C104.997 119.126 103.826 118.658 102.855 117.721C101.918 116.784 101.45 115.629 101.45 114.257V55.7231C101.45 54.6522 100.914 54.1167 99.8433 54.1167C98.7388 54.1167 98.1866 54.6522 98.1866 55.7231V75.0503C98.1866 76.3221 97.7516 77.393 96.8814 78.2632C96.0447 79.0998 95.0073 79.5182 93.769 79.5182C92.5307 79.5182 91.4765 79.0998 90.6064 78.2632C89.7362 77.393 89.3011 76.3221 89.3011 75.0503ZM112.946 29.2674C110.938 29.2674 109.097 28.7821 107.424 27.8116C105.784 26.8076 104.462 25.4856 103.458 23.8458C102.487 22.1724 102.002 20.3317 102.002 18.3237C102.002 16.2822 102.487 14.4415 103.458 12.8016C104.462 11.1618 105.784 9.85654 107.424 8.88599C109.097 7.88198 110.938 7.37998 112.946 7.37998C114.954 7.37998 116.778 7.88198 118.417 8.88599C120.091 9.85654 121.413 11.1618 122.383 12.8016C123.387 14.4415 123.889 16.2822 123.889 18.3237C123.889 20.3317 123.387 22.1724 122.383 23.8458C121.413 25.4856 120.091 26.8076 118.417 27.8116C116.778 28.7821 114.954 29.2674 112.946 29.2674Z" fill="#DEF358"/>
<path d="M91.8112 43.7754L86.7911 40.6908L86.7858 40.6994L86.7806 40.708L91.8112 43.7754ZM98.8392 37.3497L101.498 42.6078L101.509 42.602L101.521 42.5961L98.8392 37.3497ZM127.002 37.3497L124.296 42.5839L124.331 42.602L124.367 42.6197L127.002 37.3497ZM134.03 43.7754L128.983 46.8157L129.004 46.8516L129.027 46.8872L134.03 43.7754ZM135.285 78.2632L139.369 82.5103L139.41 82.4703L139.451 82.4294L135.285 78.2632ZM128.96 78.2632L124.712 82.347L124.793 82.4302L124.876 82.5103L128.96 78.2632ZM122.986 117.721L118.893 113.482L118.856 113.518L118.819 113.555L122.986 117.721ZM111.741 77.46L107.575 73.2937L107.465 73.4032L107.361 73.5184L111.741 77.46ZM109.833 117.721L105.741 113.482L105.703 113.518L105.667 113.555L109.833 117.721ZM102.855 117.721L98.689 121.887L98.7256 121.924L98.7627 121.96L102.855 117.721ZM90.6064 78.2632L86.4401 82.4294L86.4809 82.4703L86.5226 82.5103L90.6064 78.2632ZM107.424 27.8116L104.347 32.8366L104.407 32.8732L104.467 32.9084L107.424 27.8116ZM103.458 23.8458L98.3609 26.8019L98.3961 26.8625L98.4327 26.9223L103.458 23.8458ZM103.458 12.8016L98.4327 9.7251L98.4097 9.76274L98.3872 9.80072L103.458 12.8016ZM107.424 8.88599L110.424 13.9565L110.44 13.9475L110.455 13.9383L107.424 8.88599ZM118.417 8.88599L115.341 13.911L115.401 13.9476L115.461 13.9828L118.417 8.88599ZM122.383 12.8016L117.313 15.8026L117.335 15.8405L117.358 15.8782L122.383 12.8016ZM122.383 23.8458L117.331 20.8143L117.322 20.8296L117.313 20.8448L122.383 23.8458ZM118.417 27.8116L121.418 32.8821L121.434 32.8731L121.449 32.8639L118.417 27.8116ZM95.1931 75.0503V53.4641H83.4091V75.0503H95.1931ZM95.1931 53.4641C95.1931 50.6599 95.8148 48.5269 96.8417 46.8428L86.7806 40.708C84.4608 44.5124 83.4091 48.8386 83.4091 53.4641H95.1931ZM96.8312 46.86C97.9531 45.0342 99.468 43.6341 101.498 42.6078L96.1807 32.0916C92.2533 34.0773 89.0829 36.961 86.7911 40.6908L96.8312 46.86ZM101.521 42.5961C103.567 41.5501 106.116 40.9325 109.331 40.9325V29.1485C104.581 29.1485 100.135 30.0703 96.1577 32.1033L101.521 42.5961ZM109.331 40.9325H116.56V29.1485H109.331V40.9325ZM116.56 40.9325C119.777 40.9325 122.298 41.5508 124.296 42.5839L129.707 32.1155C125.749 30.0696 121.308 29.1485 116.56 29.1485V40.9325ZM124.367 42.6197C126.42 43.6464 127.909 45.0328 128.983 46.8157L139.077 40.735C136.804 36.9624 133.607 34.0651 129.637 32.0797L124.367 42.6197ZM129.027 46.8872C130.07 48.5645 130.698 50.6812 130.698 53.4641H142.482C142.482 48.8172 141.403 44.4748 139.033 40.6636L129.027 46.8872ZM130.698 53.4641V75.0503H142.482V53.4641H130.698ZM130.698 75.0503C130.698 75.0023 130.709 74.826 130.805 74.5897C130.903 74.3495 131.033 74.1821 131.119 74.0969L139.451 82.4294C141.467 80.4137 142.482 77.8263 142.482 75.0503H130.698ZM131.201 74.016C131.281 73.939 131.44 73.8185 131.668 73.7279C131.894 73.6384 132.066 73.6262 132.122 73.6262V85.4102C134.839 85.4102 137.37 84.4323 139.369 82.5103L131.201 74.016ZM132.122 73.6262C132.179 73.6262 132.351 73.6384 132.576 73.7279C132.804 73.8185 132.963 73.939 133.043 74.016L124.876 82.5103C126.875 84.4323 129.405 85.4102 132.122 85.4102V73.6262ZM133.207 74.1794C133.298 74.2747 133.42 74.4413 133.506 74.6635C133.591 74.8802 133.597 75.0305 133.597 75.0503H121.813C121.813 77.7547 122.76 80.316 124.712 82.347L133.207 74.1794ZM133.597 75.0503V55.7231H121.813V75.0503H133.597ZM133.597 55.7231C133.597 54.2326 133.202 52.0434 131.392 50.2884C129.616 48.5661 127.464 48.2247 126.048 48.2247V60.0087C125.737 60.0087 124.413 59.935 123.189 58.7482C121.931 57.5287 121.813 56.1427 121.813 55.7231H133.597ZM126.048 48.2247C124.604 48.2247 122.439 48.5896 120.677 50.352C118.914 52.1144 118.55 54.2794 118.55 55.7231H130.334C130.334 56.0959 130.236 57.4576 129.009 58.6846C127.782 59.9115 126.421 60.0087 126.048 60.0087V48.2247ZM118.55 55.7231V114.257H130.334V55.7231H118.55ZM118.55 114.257C118.55 114.234 118.557 114.081 118.646 113.869C118.736 113.655 118.849 113.525 118.893 113.482L127.078 121.96C129.221 119.891 130.334 117.197 130.334 114.257H118.55ZM118.819 113.555C118.872 113.502 119.003 113.396 119.201 113.315C119.396 113.236 119.526 113.234 119.522 113.234V125.018C122.395 125.018 125.067 123.972 127.152 121.887L118.819 113.555ZM119.522 113.234C119.518 113.234 119.648 113.236 119.842 113.315C120.041 113.396 120.172 113.502 120.224 113.555L111.892 121.887C113.977 123.972 116.649 125.018 119.522 125.018V113.234ZM120.224 113.555C120.277 113.607 120.383 113.738 120.463 113.937C120.542 114.131 120.544 114.261 120.544 114.257H108.76C108.76 117.13 109.807 119.802 111.892 121.887L120.224 113.555ZM120.544 114.257V78.6648H108.76V114.257H120.544ZM120.544 78.6648C120.544 76.6158 119.744 74.7207 118.317 73.2937L109.984 81.6262C109.655 81.2975 109.326 80.8481 109.088 80.2783C108.85 79.7073 108.76 79.1479 108.76 78.6648H120.544ZM118.317 73.2937C116.89 71.8667 114.995 71.0659 112.946 71.0659V82.8499C112.462 82.8499 111.903 82.7601 111.332 82.5222C110.762 82.2848 110.313 81.9549 109.984 81.6262L118.317 73.2937ZM112.946 71.0659C110.897 71.0659 109.002 71.8667 107.575 73.2937L115.907 81.6262C115.578 81.9549 115.129 82.2848 114.559 82.5222C113.988 82.7601 113.429 82.8499 112.946 82.8499V71.0659ZM107.361 73.5184C106.044 74.9823 105.397 76.8056 105.397 78.6648H117.181C117.181 79.0717 117.114 79.5617 116.919 80.081C116.723 80.604 116.438 81.0488 116.12 81.4015L107.361 73.5184ZM105.397 78.6648V114.257H117.181V78.6648H105.397ZM105.397 114.257C105.397 114.234 105.404 114.081 105.493 113.869C105.583 113.655 105.696 113.525 105.741 113.482L113.926 121.96C116.068 119.891 117.181 117.197 117.181 114.257H105.397ZM105.667 113.555C105.72 113.502 105.85 113.396 106.049 113.315C106.243 113.236 106.373 113.234 106.369 113.234V125.018C109.242 125.018 111.914 123.972 113.999 121.887L105.667 113.555ZM106.369 113.234C106.367 113.234 106.481 113.237 106.65 113.304C106.821 113.373 106.923 113.458 106.948 113.482L98.7627 121.96C100.852 123.977 103.499 125.018 106.369 125.018V113.234ZM107.022 113.555C107.074 113.607 107.18 113.738 107.261 113.937C107.34 114.131 107.342 114.261 107.342 114.257H95.5577C95.5577 117.13 96.604 119.802 98.689 121.887L107.022 113.555ZM107.342 114.257V55.7231H95.5577V114.257H107.342ZM107.342 55.7231C107.342 54.2794 106.977 52.1144 105.214 50.352C103.452 48.5896 101.287 48.2247 99.8433 48.2247V60.0087C99.4705 60.0087 98.1087 59.9115 96.8818 58.6846C95.6549 57.4576 95.5577 56.0959 95.5577 55.7231H107.342ZM99.8433 48.2247C98.4275 48.2247 96.2752 48.5661 94.4991 50.2884C92.6893 52.0434 92.2946 54.2326 92.2946 55.7231H104.079C104.079 56.1427 103.96 57.5287 102.702 58.7482C101.479 59.935 100.155 60.0087 99.8433 60.0087V48.2247ZM92.2946 55.7231V75.0503H104.079V55.7231H92.2946ZM92.2946 75.0503C92.2946 75.0023 92.3056 74.826 92.4016 74.5897C92.4992 74.3495 92.63 74.1821 92.7152 74.0969L101.048 82.4294C103.063 80.4137 104.079 77.8263 104.079 75.0503H92.2946ZM92.7152 74.0969C92.8243 73.9878 93.0143 73.844 93.2724 73.7399C93.5252 73.638 93.7139 73.6262 93.769 73.6262V85.4102C96.489 85.4102 99.0501 84.427 101.048 82.4294L92.7152 74.0969ZM93.769 73.6262C93.8254 73.6262 93.9973 73.6384 94.2229 73.7279C94.4512 73.8185 94.61 73.939 94.6902 74.016L86.5226 82.5103C88.5214 84.4323 91.0518 85.4102 93.769 85.4102V73.6262ZM94.7726 74.0969C94.8578 74.1821 94.9886 74.3495 95.0862 74.5897C95.1822 74.826 95.1931 75.0023 95.1931 75.0503H83.4091C83.4091 77.8263 84.4243 80.4137 86.4401 82.4294L94.7726 74.0969ZM112.946 23.3754C111.935 23.3754 111.12 23.1442 110.38 22.7148L104.467 32.9084C107.074 34.4201 109.941 35.1594 112.946 35.1594V23.3754ZM110.5 22.7866C109.655 22.2689 109 21.6147 108.483 20.7692L98.4327 26.9223C99.9231 29.3565 101.913 31.3462 104.347 32.8366L110.5 22.7866ZM108.554 20.8896C108.125 20.1494 107.894 19.3347 107.894 18.3237H96.1099C96.1099 21.3287 96.8492 24.1954 98.3609 26.8019L108.554 20.8896ZM107.894 18.3237C107.894 17.2599 108.134 16.4689 108.528 15.8026L98.3872 9.80072C96.8404 12.4142 96.1099 15.3045 96.1099 18.3237H107.894ZM108.483 15.8782C108.99 15.0504 109.62 14.4328 110.424 13.9565L104.423 3.81547C101.948 5.28022 99.9339 7.27315 98.4327 9.7251L108.483 15.8782ZM110.455 13.9383C111.185 13.5002 111.973 13.272 112.946 13.272V1.48797C109.902 1.48797 107.009 2.26373 104.392 3.83364L110.455 13.9383ZM112.946 13.272C113.918 13.272 114.669 13.4997 115.341 13.911L121.494 3.86099C118.886 2.26427 115.989 1.48797 112.946 1.48797V13.272ZM115.461 13.9828C116.276 14.4552 116.864 15.0444 117.313 15.8026L127.454 9.80072C125.961 7.27907 123.906 5.25784 121.374 3.78923L115.461 13.9828ZM117.358 15.8782C117.76 16.5342 117.997 17.2981 117.997 18.3237H129.781C129.781 15.2663 129.015 12.3489 127.408 9.7251L117.358 15.8782ZM117.997 18.3237C117.997 19.2963 117.769 20.0842 117.331 20.8143L127.436 26.8772C129.006 24.2606 129.781 21.3671 129.781 18.3237H117.997ZM117.313 20.8448C116.853 21.6212 116.241 22.2464 115.386 22.7593L121.449 32.8639C123.941 31.3688 125.972 29.3501 127.454 26.8467L117.313 20.8448ZM115.417 22.7411C114.735 23.1445 113.957 23.3754 112.946 23.3754V35.1594C115.95 35.1594 118.82 34.4198 121.418 32.8821L115.417 22.7411Z" fill="black" mask="url(#path-2-outside-1_3683_23747)"/>
</mask>
<g mask="url(#mask0_3683_23747)">
<mask id="path-4-outside-2_3683_23747" maskUnits="userSpaceOnUse" x="82.5" y="1" width="60" height="125" fill="black">
<rect fill="white" x="82.5" y="1" width="60" height="125"/>
<path d="M89.3011 75.0503V53.4641C89.3011 49.7492 90.1378 46.5197 91.8112 43.7754C93.518 40.9976 95.8607 38.8557 98.8392 37.3497C101.851 35.8102 105.349 35.0405 109.331 35.0405H116.56C120.543 35.0405 124.023 35.8102 127.002 37.3497C130.014 38.8557 132.356 40.9976 134.03 43.7754C135.737 46.5197 136.59 49.7492 136.59 53.4641V75.0503C136.59 76.3221 136.155 77.393 135.285 78.2632C134.415 79.0998 133.36 79.5182 132.122 79.5182C130.884 79.5182 129.83 79.0998 128.96 78.2632C128.123 77.393 127.705 76.3221 127.705 75.0503V55.7231C127.705 54.6522 127.152 54.1167 126.048 54.1167C124.977 54.1167 124.442 54.6522 124.442 55.7231V114.257C124.442 115.629 123.956 116.784 122.986 117.721C122.049 118.658 120.894 119.126 119.522 119.126C118.15 119.126 116.995 118.658 116.058 117.721C115.121 116.784 114.652 115.629 114.652 114.257V78.6648C114.652 78.1962 114.485 77.7946 114.15 77.46C113.816 77.1253 113.414 76.9579 112.946 76.9579C112.477 76.9579 112.075 77.1253 111.741 77.46C111.44 77.7946 111.289 78.1962 111.289 78.6648V114.257C111.289 115.629 110.804 116.784 109.833 117.721C108.896 118.658 107.741 119.126 106.369 119.126C104.997 119.126 103.826 118.658 102.855 117.721C101.918 116.784 101.45 115.629 101.45 114.257V55.7231C101.45 54.6522 100.914 54.1167 99.8433 54.1167C98.7388 54.1167 98.1866 54.6522 98.1866 55.7231V75.0503C98.1866 76.3221 97.7516 77.393 96.8814 78.2632C96.0447 79.0998 95.0073 79.5182 93.769 79.5182C92.5307 79.5182 91.4765 79.0998 90.6064 78.2632C89.7362 77.393 89.3011 76.3221 89.3011 75.0503ZM112.946 29.2674C110.938 29.2674 109.097 28.7821 107.424 27.8116C105.784 26.8076 104.462 25.4856 103.458 23.8458C102.487 22.1724 102.002 20.3317 102.002 18.3237C102.002 16.2822 102.487 14.4415 103.458 12.8016C104.462 11.1618 105.784 9.85654 107.424 8.88599C109.097 7.88198 110.938 7.37998 112.946 7.37998C114.954 7.37998 116.778 7.88198 118.417 8.88599C120.091 9.85654 121.413 11.1618 122.383 12.8016C123.387 14.4415 123.889 16.2822 123.889 18.3237C123.889 20.3317 123.387 22.1724 122.383 23.8458C121.413 25.4856 120.091 26.8076 118.417 27.8116C116.778 28.7821 114.954 29.2674 112.946 29.2674Z"/>
</mask>
<path d="M89.3011 75.0503V53.4641C89.3011 49.7492 90.1378 46.5197 91.8112 43.7754C93.518 40.9976 95.8607 38.8557 98.8392 37.3497C101.851 35.8102 105.349 35.0405 109.331 35.0405H116.56C120.543 35.0405 124.023 35.8102 127.002 37.3497C130.014 38.8557 132.356 40.9976 134.03 43.7754C135.737 46.5197 136.59 49.7492 136.59 53.4641V75.0503C136.59 76.3221 136.155 77.393 135.285 78.2632C134.415 79.0998 133.36 79.5182 132.122 79.5182C130.884 79.5182 129.83 79.0998 128.96 78.2632C128.123 77.393 127.705 76.3221 127.705 75.0503V55.7231C127.705 54.6522 127.152 54.1167 126.048 54.1167C124.977 54.1167 124.442 54.6522 124.442 55.7231V114.257C124.442 115.629 123.956 116.784 122.986 117.721C122.049 118.658 120.894 119.126 119.522 119.126C118.15 119.126 116.995 118.658 116.058 117.721C115.121 116.784 114.652 115.629 114.652 114.257V78.6648C114.652 78.1962 114.485 77.7946 114.15 77.46C113.816 77.1253 113.414 76.9579 112.946 76.9579C112.477 76.9579 112.075 77.1253 111.741 77.46C111.44 77.7946 111.289 78.1962 111.289 78.6648V114.257C111.289 115.629 110.804 116.784 109.833 117.721C108.896 118.658 107.741 119.126 106.369 119.126C104.997 119.126 103.826 118.658 102.855 117.721C101.918 116.784 101.45 115.629 101.45 114.257V55.7231C101.45 54.6522 100.914 54.1167 99.8433 54.1167C98.7388 54.1167 98.1866 54.6522 98.1866 55.7231V75.0503C98.1866 76.3221 97.7516 77.393 96.8814 78.2632C96.0447 79.0998 95.0073 79.5182 93.769 79.5182C92.5307 79.5182 91.4765 79.0998 90.6064 78.2632C89.7362 77.393 89.3011 76.3221 89.3011 75.0503ZM112.946 29.2674C110.938 29.2674 109.097 28.7821 107.424 27.8116C105.784 26.8076 104.462 25.4856 103.458 23.8458C102.487 22.1724 102.002 20.3317 102.002 18.3237C102.002 16.2822 102.487 14.4415 103.458 12.8016C104.462 11.1618 105.784 9.85654 107.424 8.88599C109.097 7.88198 110.938 7.37998 112.946 7.37998C114.954 7.37998 116.778 7.88198 118.417 8.88599C120.091 9.85654 121.413 11.1618 122.383 12.8016C123.387 14.4415 123.889 16.2822 123.889 18.3237C123.889 20.3317 123.387 22.1724 122.383 23.8458C121.413 25.4856 120.091 26.8076 118.417 27.8116C116.778 28.7821 114.954 29.2674 112.946 29.2674Z" fill="#F1D367"/>
<path d="M91.8112 43.7754L86.7911 40.6908L86.7858 40.6994L86.7806 40.708L91.8112 43.7754ZM98.8392 37.3497L101.498 42.6078L101.509 42.602L101.521 42.5961L98.8392 37.3497ZM127.002 37.3497L124.296 42.5839L124.331 42.602L124.367 42.6197L127.002 37.3497ZM134.03 43.7754L128.983 46.8157L129.004 46.8516L129.027 46.8872L134.03 43.7754ZM135.285 78.2632L139.369 82.5103L139.41 82.4703L139.451 82.4294L135.285 78.2632ZM128.96 78.2632L124.712 82.347L124.793 82.4302L124.876 82.5103L128.96 78.2632ZM122.986 117.721L118.893 113.482L118.856 113.518L118.819 113.555L122.986 117.721ZM111.741 77.46L107.575 73.2937L107.465 73.4032L107.361 73.5184L111.741 77.46ZM109.833 117.721L105.741 113.482L105.703 113.518L105.667 113.555L109.833 117.721ZM102.855 117.721L98.689 121.887L98.7256 121.924L98.7627 121.96L102.855 117.721ZM90.6064 78.2632L86.4401 82.4294L86.4809 82.4703L86.5226 82.5103L90.6064 78.2632ZM107.424 27.8116L104.347 32.8366L104.407 32.8732L104.467 32.9084L107.424 27.8116ZM103.458 23.8458L98.3609 26.8019L98.3961 26.8625L98.4327 26.9223L103.458 23.8458ZM103.458 12.8016L98.4327 9.7251L98.4097 9.76274L98.3872 9.80072L103.458 12.8016ZM107.424 8.88599L110.424 13.9565L110.44 13.9475L110.455 13.9383L107.424 8.88599ZM118.417 8.88599L115.341 13.911L115.401 13.9476L115.461 13.9828L118.417 8.88599ZM122.383 12.8016L117.313 15.8026L117.335 15.8405L117.358 15.8782L122.383 12.8016ZM122.383 23.8458L117.331 20.8143L117.322 20.8296L117.313 20.8448L122.383 23.8458ZM118.417 27.8116L121.418 32.8821L121.434 32.8731L121.449 32.8639L118.417 27.8116ZM95.1931 75.0503V53.4641H83.4091V75.0503H95.1931ZM95.1931 53.4641C95.1931 50.6599 95.8148 48.5269 96.8417 46.8428L86.7806 40.708C84.4608 44.5124 83.4091 48.8386 83.4091 53.4641H95.1931ZM96.8312 46.86C97.9531 45.0342 99.468 43.6341 101.498 42.6078L96.1807 32.0916C92.2533 34.0773 89.0829 36.961 86.7911 40.6908L96.8312 46.86ZM101.521 42.5961C103.567 41.5501 106.116 40.9325 109.331 40.9325V29.1485C104.581 29.1485 100.135 30.0703 96.1577 32.1033L101.521 42.5961ZM109.331 40.9325H116.56V29.1485H109.331V40.9325ZM116.56 40.9325C119.777 40.9325 122.298 41.5508 124.296 42.5839L129.707 32.1155C125.749 30.0696 121.308 29.1485 116.56 29.1485V40.9325ZM124.367 42.6197C126.42 43.6464 127.909 45.0328 128.983 46.8157L139.077 40.735C136.804 36.9624 133.607 34.0651 129.637 32.0797L124.367 42.6197ZM129.027 46.8872C130.07 48.5645 130.698 50.6812 130.698 53.4641H142.482C142.482 48.8172 141.403 44.4748 139.033 40.6636L129.027 46.8872ZM130.698 53.4641V75.0503H142.482V53.4641H130.698ZM130.698 75.0503C130.698 75.0023 130.709 74.826 130.805 74.5897C130.903 74.3495 131.033 74.1821 131.119 74.0969L139.451 82.4294C141.467 80.4137 142.482 77.8263 142.482 75.0503H130.698ZM131.201 74.016C131.281 73.939 131.44 73.8185 131.668 73.7279C131.894 73.6384 132.066 73.6262 132.122 73.6262V85.4102C134.839 85.4102 137.37 84.4323 139.369 82.5103L131.201 74.016ZM132.122 73.6262C132.179 73.6262 132.351 73.6384 132.576 73.7279C132.804 73.8185 132.963 73.939 133.043 74.016L124.876 82.5103C126.875 84.4323 129.405 85.4102 132.122 85.4102V73.6262ZM133.207 74.1794C133.298 74.2747 133.42 74.4413 133.506 74.6635C133.591 74.8802 133.597 75.0305 133.597 75.0503H121.813C121.813 77.7547 122.76 80.316 124.712 82.347L133.207 74.1794ZM133.597 75.0503V55.7231H121.813V75.0503H133.597ZM133.597 55.7231C133.597 54.2326 133.202 52.0434 131.392 50.2884C129.616 48.5661 127.464 48.2247 126.048 48.2247V60.0087C125.737 60.0087 124.413 59.935 123.189 58.7482C121.931 57.5287 121.813 56.1427 121.813 55.7231H133.597ZM126.048 48.2247C124.604 48.2247 122.439 48.5896 120.677 50.352C118.914 52.1144 118.55 54.2794 118.55 55.7231H130.334C130.334 56.0959 130.236 57.4576 129.009 58.6846C127.782 59.9115 126.421 60.0087 126.048 60.0087V48.2247ZM118.55 55.7231V114.257H130.334V55.7231H118.55ZM118.55 114.257C118.55 114.234 118.557 114.081 118.646 113.869C118.736 113.655 118.849 113.525 118.893 113.482L127.078 121.96C129.221 119.891 130.334 117.197 130.334 114.257H118.55ZM118.819 113.555C118.872 113.502 119.003 113.396 119.201 113.315C119.396 113.236 119.526 113.234 119.522 113.234V125.018C122.395 125.018 125.067 123.972 127.152 121.887L118.819 113.555ZM119.522 113.234C119.518 113.234 119.648 113.236 119.842 113.315C120.041 113.396 120.172 113.502 120.224 113.555L111.892 121.887C113.977 123.972 116.649 125.018 119.522 125.018V113.234ZM120.224 113.555C120.277 113.607 120.383 113.738 120.463 113.937C120.542 114.131 120.544 114.261 120.544 114.257H108.76C108.76 117.13 109.807 119.802 111.892 121.887L120.224 113.555ZM120.544 114.257V78.6648H108.76V114.257H120.544ZM120.544 78.6648C120.544 76.6158 119.744 74.7207 118.317 73.2937L109.984 81.6262C109.655 81.2975 109.326 80.8481 109.088 80.2783C108.85 79.7073 108.76 79.1479 108.76 78.6648H120.544ZM118.317 73.2937C116.89 71.8667 114.995 71.0659 112.946 71.0659V82.8499C112.462 82.8499 111.903 82.7601 111.332 82.5222C110.762 82.2848 110.313 81.9549 109.984 81.6262L118.317 73.2937ZM112.946 71.0659C110.897 71.0659 109.002 71.8667 107.575 73.2937L115.907 81.6262C115.578 81.9549 115.129 82.2848 114.559 82.5222C113.988 82.7601 113.429 82.8499 112.946 82.8499V71.0659ZM107.361 73.5184C106.044 74.9823 105.397 76.8056 105.397 78.6648H117.181C117.181 79.0717 117.114 79.5617 116.919 80.081C116.723 80.604 116.438 81.0488 116.12 81.4015L107.361 73.5184ZM105.397 78.6648V114.257H117.181V78.6648H105.397ZM105.397 114.257C105.397 114.234 105.404 114.081 105.493 113.869C105.583 113.655 105.696 113.525 105.741 113.482L113.926 121.96C116.068 119.891 117.181 117.197 117.181 114.257H105.397ZM105.667 113.555C105.72 113.502 105.85 113.396 106.049 113.315C106.243 113.236 106.373 113.234 106.369 113.234V125.018C109.242 125.018 111.914 123.972 113.999 121.887L105.667 113.555ZM106.369 113.234C106.367 113.234 106.481 113.237 106.65 113.304C106.821 113.373 106.923 113.458 106.948 113.482L98.7627 121.96C100.852 123.977 103.499 125.018 106.369 125.018V113.234ZM107.022 113.555C107.074 113.607 107.18 113.738 107.261 113.937C107.34 114.131 107.342 114.261 107.342 114.257H95.5577C95.5577 117.13 96.604 119.802 98.689 121.887L107.022 113.555ZM107.342 114.257V55.7231H95.5577V114.257H107.342ZM107.342 55.7231C107.342 54.2794 106.977 52.1144 105.214 50.352C103.452 48.5896 101.287 48.2247 99.8433 48.2247V60.0087C99.4705 60.0087 98.1087 59.9115 96.8818 58.6846C95.6549 57.4576 95.5577 56.0959 95.5577 55.7231H107.342ZM99.8433 48.2247C98.4275 48.2247 96.2752 48.5661 94.4991 50.2884C92.6893 52.0434 92.2946 54.2326 92.2946 55.7231H104.079C104.079 56.1427 103.96 57.5287 102.702 58.7482C101.479 59.935 100.155 60.0087 99.8433 60.0087V48.2247ZM92.2946 55.7231V75.0503H104.079V55.7231H92.2946ZM92.2946 75.0503C92.2946 75.0023 92.3056 74.826 92.4016 74.5897C92.4992 74.3495 92.63 74.1821 92.7152 74.0969L101.048 82.4294C103.063 80.4137 104.079 77.8263 104.079 75.0503H92.2946ZM92.7152 74.0969C92.8243 73.9878 93.0143 73.844 93.2724 73.7399C93.5252 73.638 93.7139 73.6262 93.769 73.6262V85.4102C96.489 85.4102 99.0501 84.427 101.048 82.4294L92.7152 74.0969ZM93.769 73.6262C93.8254 73.6262 93.9973 73.6384 94.2229 73.7279C94.4512 73.8185 94.61 73.939 94.6902 74.016L86.5226 82.5103C88.5214 84.4323 91.0518 85.4102 93.769 85.4102V73.6262ZM94.7726 74.0969C94.8578 74.1821 94.9886 74.3495 95.0862 74.5897C95.1822 74.826 95.1931 75.0023 95.1931 75.0503H83.4091C83.4091 77.8263 84.4243 80.4137 86.4401 82.4294L94.7726 74.0969ZM112.946 23.3754C111.935 23.3754 111.12 23.1442 110.38 22.7148L104.467 32.9084C107.074 34.4201 109.941 35.1594 112.946 35.1594V23.3754ZM110.5 22.7866C109.655 22.2689 109 21.6147 108.483 20.7692L98.4327 26.9223C99.9231 29.3565 101.913 31.3462 104.347 32.8366L110.5 22.7866ZM108.554 20.8896C108.125 20.1494 107.894 19.3347 107.894 18.3237H96.1099C96.1099 21.3287 96.8492 24.1954 98.3609 26.8019L108.554 20.8896ZM107.894 18.3237C107.894 17.2599 108.134 16.4689 108.528 15.8026L98.3872 9.80072C96.8404 12.4142 96.1099 15.3045 96.1099 18.3237H107.894ZM108.483 15.8782C108.99 15.0504 109.62 14.4328 110.424 13.9565L104.423 3.81547C101.948 5.28022 99.9339 7.27315 98.4327 9.7251L108.483 15.8782ZM110.455 13.9383C111.185 13.5002 111.973 13.272 112.946 13.272V1.48797C109.902 1.48797 107.009 2.26373 104.392 3.83364L110.455 13.9383ZM112.946 13.272C113.918 13.272 114.669 13.4997 115.341 13.911L121.494 3.86099C118.886 2.26427 115.989 1.48797 112.946 1.48797V13.272ZM115.461 13.9828C116.276 14.4552 116.864 15.0444 117.313 15.8026L127.454 9.80072C125.961 7.27907 123.906 5.25784 121.374 3.78923L115.461 13.9828ZM117.358 15.8782C117.76 16.5342 117.997 17.2981 117.997 18.3237H129.781C129.781 15.2663 129.015 12.3489 127.408 9.7251L117.358 15.8782ZM117.997 18.3237C117.997 19.2963 117.769 20.0842 117.331 20.8143L127.436 26.8772C129.006 24.2606 129.781 21.3671 129.781 18.3237H117.997ZM117.313 20.8448C116.853 21.6212 116.241 22.2464 115.386 22.7593L121.449 32.8639C123.941 31.3688 125.972 29.3501 127.454 26.8467L117.313 20.8448ZM115.417 22.7411C114.735 23.1445 113.957 23.3754 112.946 23.3754V35.1594C115.95 35.1594 118.82 34.4198 121.418 32.8821L115.417 22.7411Z" fill="black" mask="url(#path-4-outside-2_3683_23747)"/>
<g style="mix-blend-mode:multiply">
<path d="M100.5 117.75V85.375L113.375 88.875L126.25 92.375V122.75C126.25 122.75 111.375 128.75 110.875 124.875C110.375 121 100.5 117.75 100.5 117.75Z" fill="#FFEDEC"/>
</g>
</g>
<path d="M21.5 121.125L60.625 167.25L84 164.397V121.75L21.5 121.125Z" fill="#D2CEC3"/>
<mask id="path-8-outside-3_3683_23747" maskUnits="userSpaceOnUse" x="121" y="47.75" width="60" height="125" fill="black">
<rect fill="white" x="121" y="47.75" width="60" height="125"/>
<path d="M127.801 121.8V100.214C127.801 96.4992 128.638 93.2697 130.311 90.5254C132.018 87.7476 134.361 85.6057 137.339 84.0997C140.351 82.5602 143.849 81.7905 147.831 81.7905H155.06C159.043 81.7905 162.523 82.5602 165.502 84.0997C168.514 85.6057 170.856 87.7476 172.53 90.5254C174.237 93.2697 175.09 96.4992 175.09 100.214V121.8C175.09 123.072 174.655 124.143 173.785 125.013C172.915 125.85 171.86 126.268 170.622 126.268C169.384 126.268 168.33 125.85 167.46 125.013C166.623 124.143 166.205 123.072 166.205 121.8V102.473C166.205 101.402 165.652 100.867 164.548 100.867C163.477 100.867 162.942 101.402 162.942 102.473V161.007C162.942 162.379 162.456 163.534 161.486 164.471C160.549 165.408 159.394 165.876 158.022 165.876C156.65 165.876 155.495 165.408 154.558 164.471C153.621 163.534 153.152 162.379 153.152 161.007V125.415C153.152 124.946 152.985 124.545 152.65 124.21C152.316 123.875 151.914 123.708 151.446 123.708C150.977 123.708 150.575 123.875 150.241 124.21C149.94 124.545 149.789 124.946 149.789 125.415V161.007C149.789 162.379 149.304 163.534 148.333 164.471C147.396 165.408 146.241 165.876 144.869 165.876C143.497 165.876 142.326 165.408 141.355 164.471C140.418 163.534 139.95 162.379 139.95 161.007V102.473C139.95 101.402 139.414 100.867 138.343 100.867C137.239 100.867 136.687 101.402 136.687 102.473V121.8C136.687 123.072 136.252 124.143 135.381 125.013C134.545 125.85 133.507 126.268 132.269 126.268C131.031 126.268 129.976 125.85 129.106 125.013C128.236 124.143 127.801 123.072 127.801 121.8ZM151.446 76.0174C149.438 76.0174 147.597 75.5321 145.924 74.5616C144.284 73.5576 142.962 72.2356 141.958 70.5958C140.987 68.9224 140.502 67.0817 140.502 65.0737C140.502 63.0322 140.987 61.1915 141.958 59.5516C142.962 57.9118 144.284 56.6065 145.924 55.636C147.597 54.632 149.438 54.13 151.446 54.13C153.454 54.13 155.278 54.632 156.917 55.636C158.591 56.6065 159.913 57.9118 160.883 59.5516C161.887 61.1915 162.389 63.0322 162.389 65.0737C162.389 67.0817 161.887 68.9224 160.883 70.5958C159.913 72.2356 158.591 73.5576 156.917 74.5616C155.278 75.5321 153.454 76.0174 151.446 76.0174Z"/>
</mask>
<path d="M127.801 121.8V100.214C127.801 96.4992 128.638 93.2697 130.311 90.5254C132.018 87.7476 134.361 85.6057 137.339 84.0997C140.351 82.5602 143.849 81.7905 147.831 81.7905H155.06C159.043 81.7905 162.523 82.5602 165.502 84.0997C168.514 85.6057 170.856 87.7476 172.53 90.5254C174.237 93.2697 175.09 96.4992 175.09 100.214V121.8C175.09 123.072 174.655 124.143 173.785 125.013C172.915 125.85 171.86 126.268 170.622 126.268C169.384 126.268 168.33 125.85 167.46 125.013C166.623 124.143 166.205 123.072 166.205 121.8V102.473C166.205 101.402 165.652 100.867 164.548 100.867C163.477 100.867 162.942 101.402 162.942 102.473V161.007C162.942 162.379 162.456 163.534 161.486 164.471C160.549 165.408 159.394 165.876 158.022 165.876C156.65 165.876 155.495 165.408 154.558 164.471C153.621 163.534 153.152 162.379 153.152 161.007V125.415C153.152 124.946 152.985 124.545 152.65 124.21C152.316 123.875 151.914 123.708 151.446 123.708C150.977 123.708 150.575 123.875 150.241 124.21C149.94 124.545 149.789 124.946 149.789 125.415V161.007C149.789 162.379 149.304 163.534 148.333 164.471C147.396 165.408 146.241 165.876 144.869 165.876C143.497 165.876 142.326 165.408 141.355 164.471C140.418 163.534 139.95 162.379 139.95 161.007V102.473C139.95 101.402 139.414 100.867 138.343 100.867C137.239 100.867 136.687 101.402 136.687 102.473V121.8C136.687 123.072 136.252 124.143 135.381 125.013C134.545 125.85 133.507 126.268 132.269 126.268C131.031 126.268 129.976 125.85 129.106 125.013C128.236 124.143 127.801 123.072 127.801 121.8ZM151.446 76.0174C149.438 76.0174 147.597 75.5321 145.924 74.5616C144.284 73.5576 142.962 72.2356 141.958 70.5958C140.987 68.9224 140.502 67.0817 140.502 65.0737C140.502 63.0322 140.987 61.1915 141.958 59.5516C142.962 57.9118 144.284 56.6065 145.924 55.636C147.597 54.632 149.438 54.13 151.446 54.13C153.454 54.13 155.278 54.632 156.917 55.636C158.591 56.6065 159.913 57.9118 160.883 59.5516C161.887 61.1915 162.389 63.0322 162.389 65.0737C162.389 67.0817 161.887 68.9224 160.883 70.5958C159.913 72.2356 158.591 73.5576 156.917 74.5616C155.278 75.5321 153.454 76.0174 151.446 76.0174Z" fill="#FF9EAB"/>
<path d="M130.311 90.5254L125.291 87.4408L125.286 87.4494L125.281 87.458L130.311 90.5254ZM137.339 84.0997L139.998 89.3578L140.009 89.352L140.021 89.3461L137.339 84.0997ZM165.502 84.0997L162.796 89.3339L162.831 89.352L162.867 89.3697L165.502 84.0997ZM172.53 90.5254L167.483 93.5657L167.504 93.6016L167.527 93.6372L172.53 90.5254ZM173.785 125.013L177.869 129.26L177.91 129.22L177.951 129.179L173.785 125.013ZM167.46 125.013L163.212 129.097L163.293 129.18L163.376 129.26L167.46 125.013ZM161.486 164.471L157.393 160.232L157.356 160.268L157.319 160.305L161.486 164.471ZM150.241 124.21L146.075 120.044L145.965 120.153L145.861 120.268L150.241 124.21ZM148.333 164.471L144.241 160.232L144.203 160.268L144.167 160.305L148.333 164.471ZM141.355 164.471L137.189 168.637L137.226 168.674L137.263 168.71L141.355 164.471ZM129.106 125.013L124.94 129.179L124.981 129.22L125.023 129.26L129.106 125.013ZM145.924 74.5616L142.847 79.5866L142.907 79.6232L142.967 79.6584L145.924 74.5616ZM141.958 70.5958L136.861 73.5519L136.896 73.6125L136.933 73.6723L141.958 70.5958ZM141.958 59.5516L136.933 56.4751L136.91 56.5127L136.887 56.5507L141.958 59.5516ZM145.924 55.636L148.924 60.7065L148.94 60.6975L148.955 60.6883L145.924 55.636ZM156.917 55.636L153.841 60.661L153.901 60.6976L153.961 60.7328L156.917 55.636ZM160.883 59.5516L155.813 62.5526L155.835 62.5905L155.858 62.6282L160.883 59.5516ZM160.883 70.5958L155.831 67.5643L155.822 67.5796L155.813 67.5948L160.883 70.5958ZM156.917 74.5616L159.918 79.6321L159.934 79.6231L159.949 79.6139L156.917 74.5616ZM133.693 121.8V100.214H121.909V121.8H133.693ZM133.693 100.214C133.693 97.4099 134.315 95.2769 135.342 93.5928L125.281 87.458C122.961 91.2624 121.909 95.5886 121.909 100.214H133.693ZM135.331 93.61C136.453 91.7842 137.968 90.3841 139.998 89.3578L134.681 78.8416C130.753 80.8273 127.583 83.711 125.291 87.4408L135.331 93.61ZM140.021 89.3461C142.067 88.3001 144.616 87.6825 147.831 87.6825V75.8985C143.081 75.8985 138.635 76.8203 134.658 78.8533L140.021 89.3461ZM147.831 87.6825H155.06V75.8985H147.831V87.6825ZM155.06 87.6825C158.277 87.6825 160.798 88.3008 162.796 89.3339L168.207 78.8655C164.249 76.8196 159.808 75.8985 155.06 75.8985V87.6825ZM162.867 89.3697C164.92 90.3964 166.409 91.7828 167.483 93.5657L177.577 87.485C175.304 83.7124 172.107 80.8151 168.137 78.8297L162.867 89.3697ZM167.527 93.6372C168.57 95.3145 169.198 97.4312 169.198 100.214H180.982C180.982 95.5672 179.903 91.2248 177.533 87.4136L167.527 93.6372ZM169.198 100.214V121.8H180.982V100.214H169.198ZM169.198 121.8C169.198 121.752 169.209 121.576 169.305 121.34C169.403 121.1 169.533 120.932 169.619 120.847L177.951 129.179C179.967 127.164 180.982 124.576 180.982 121.8H169.198ZM169.701 120.766C169.781 120.689 169.94 120.568 170.168 120.478C170.394 120.388 170.566 120.376 170.622 120.376V132.16C173.339 132.16 175.87 131.182 177.869 129.26L169.701 120.766ZM170.622 120.376C170.679 120.376 170.851 120.388 171.076 120.478C171.304 120.568 171.463 120.689 171.543 120.766L163.376 129.26C165.375 131.182 167.905 132.16 170.622 132.16V120.376ZM171.707 120.929C171.798 121.025 171.92 121.191 172.006 121.414C172.091 121.63 172.097 121.78 172.097 121.8H160.313C160.313 124.505 161.26 127.066 163.212 129.097L171.707 120.929ZM172.097 121.8V102.473H160.313V121.8H172.097ZM172.097 102.473C172.097 100.983 171.702 98.7934 169.892 97.0384C168.116 95.3161 165.964 94.9747 164.548 94.9747V106.759C164.237 106.759 162.913 106.685 161.689 105.498C160.431 104.279 160.313 102.893 160.313 102.473H172.097ZM164.548 94.9747C163.104 94.9747 160.939 95.3396 159.177 97.102C157.414 98.8644 157.05 101.029 157.05 102.473H168.834C168.834 102.846 168.736 104.208 167.509 105.435C166.282 106.662 164.921 106.759 164.548 106.759V94.9747ZM157.05 102.473V161.007H168.834V102.473H157.05ZM157.05 161.007C157.05 160.984 157.057 160.831 157.146 160.619C157.236 160.405 157.349 160.275 157.393 160.232L165.578 168.71C167.721 166.641 168.834 163.947 168.834 161.007H157.05ZM157.319 160.305C157.372 160.252 157.503 160.146 157.701 160.065C157.896 159.986 158.026 159.984 158.022 159.984V171.768C160.895 171.768 163.567 170.722 165.652 168.637L157.319 160.305ZM158.022 159.984C158.018 159.984 158.148 159.986 158.342 160.065C158.541 160.146 158.672 160.252 158.724 160.305L150.392 168.637C152.477 170.722 155.149 171.768 158.022 171.768V159.984ZM158.724 160.305C158.777 160.357 158.883 160.488 158.963 160.687C159.042 160.881 159.044 161.011 159.044 161.007H147.26C147.26 163.88 148.307 166.552 150.392 168.637L158.724 160.305ZM159.044 161.007V125.415H147.26V161.007H159.044ZM159.044 125.415C159.044 123.366 158.244 121.471 156.817 120.044L148.484 128.376C148.155 128.048 147.826 127.598 147.588 127.028C147.35 126.457 147.26 125.898 147.26 125.415H159.044ZM156.817 120.044C155.39 118.617 153.495 117.816 151.446 117.816V129.6C150.962 129.6 150.403 129.51 149.832 129.272C149.262 129.035 148.813 128.705 148.484 128.376L156.817 120.044ZM151.446 117.816C149.397 117.816 147.502 118.617 146.075 120.044L154.407 128.376C154.078 128.705 153.629 129.035 153.059 129.272C152.488 129.51 151.929 129.6 151.446 129.6V117.816ZM145.861 120.268C144.544 121.732 143.897 123.556 143.897 125.415H155.681C155.681 125.822 155.614 126.312 155.419 126.831C155.223 127.354 154.938 127.799 154.62 128.151L145.861 120.268ZM143.897 125.415V161.007H155.681V125.415H143.897ZM143.897 161.007C143.897 160.984 143.904 160.831 143.993 160.619C144.083 160.405 144.196 160.275 144.241 160.232L152.426 168.71C154.568 166.641 155.681 163.947 155.681 161.007H143.897ZM144.167 160.305C144.22 160.252 144.35 160.146 144.549 160.065C144.743 159.986 144.873 159.984 144.869 159.984V171.768C147.742 171.768 150.414 170.722 152.499 168.637L144.167 160.305ZM144.869 159.984C144.867 159.984 144.981 159.987 145.15 160.054C145.321 160.123 145.423 160.208 145.448 160.232L137.263 168.71C139.352 170.727 141.999 171.768 144.869 171.768V159.984ZM145.522 160.305C145.574 160.357 145.68 160.488 145.761 160.687C145.84 160.881 145.842 161.011 145.842 161.007H134.058C134.058 163.88 135.104 166.552 137.189 168.637L145.522 160.305ZM145.842 161.007V102.473H134.058V161.007H145.842ZM145.842 102.473C145.842 101.029 145.477 98.8644 143.714 97.102C141.952 95.3396 139.787 94.9747 138.343 94.9747V106.759C137.971 106.759 136.609 106.662 135.382 105.435C134.155 104.208 134.058 102.846 134.058 102.473H145.842ZM138.343 94.9747C136.927 94.9747 134.775 95.3161 132.999 97.0384C131.189 98.7934 130.795 100.983 130.795 102.473H142.579C142.579 102.893 142.46 104.279 141.202 105.498C139.979 106.685 138.655 106.759 138.343 106.759V94.9747ZM130.795 102.473V121.8H142.579V102.473H130.795ZM130.795 121.8C130.795 121.752 130.806 121.576 130.902 121.34C130.999 121.1 131.13 120.932 131.215 120.847L139.548 129.179C141.563 127.164 142.579 124.576 142.579 121.8H130.795ZM131.215 120.847C131.324 120.738 131.514 120.594 131.772 120.49C132.025 120.388 132.214 120.376 132.269 120.376V132.16C134.989 132.16 137.55 131.177 139.548 129.179L131.215 120.847ZM132.269 120.376C132.325 120.376 132.497 120.388 132.723 120.478C132.951 120.568 133.11 120.689 133.19 120.766L125.023 129.26C127.021 131.182 129.552 132.16 132.269 132.16V120.376ZM133.273 120.847C133.358 120.932 133.489 121.1 133.586 121.34C133.682 121.576 133.693 121.752 133.693 121.8H121.909C121.909 124.576 122.924 127.164 124.94 129.179L133.273 120.847ZM151.446 70.1254C150.435 70.1254 149.62 69.8942 148.88 69.4648L142.967 79.6584C145.574 81.1701 148.441 81.9094 151.446 81.9094V70.1254ZM149 69.5366C148.155 69.0189 147.5 68.3647 146.983 67.5192L136.933 73.6723C138.423 76.1065 140.413 78.0962 142.847 79.5866L149 69.5366ZM147.054 67.6396C146.625 66.8994 146.394 66.0847 146.394 65.0737H134.61C134.61 68.0787 135.349 70.9454 136.861 73.5519L147.054 67.6396ZM146.394 65.0737C146.394 64.0099 146.634 63.2189 147.028 62.5526L136.887 56.5507C135.34 59.1642 134.61 62.0545 134.61 65.0737H146.394ZM146.983 62.6282C147.49 61.8004 148.12 61.1828 148.924 60.7065L142.923 50.5655C140.448 52.0302 138.434 54.0231 136.933 56.4751L146.983 62.6282ZM148.955 60.6883C149.685 60.2502 150.473 60.022 151.446 60.022V48.238C148.402 48.238 145.509 49.0137 142.892 50.5836L148.955 60.6883ZM151.446 60.022C152.418 60.022 153.169 60.2497 153.841 60.661L159.994 50.611C157.386 49.0143 154.489 48.238 151.446 48.238V60.022ZM153.961 60.7328C154.776 61.2052 155.364 61.7944 155.813 62.5526L165.954 56.5507C164.461 54.0291 162.406 52.0078 159.874 50.5392L153.961 60.7328ZM155.858 62.6282C156.26 63.2842 156.497 64.0481 156.497 65.0737H168.281C168.281 62.0163 167.515 59.0989 165.908 56.4751L155.858 62.6282ZM156.497 65.0737C156.497 66.0463 156.269 66.8342 155.831 67.5643L165.936 73.6272C167.506 71.0106 168.281 68.1171 168.281 65.0737H156.497ZM155.813 67.5948C155.353 68.3712 154.741 68.9964 153.886 69.5093L159.949 79.6139C162.441 78.1188 164.472 76.1001 165.954 73.5967L155.813 67.5948ZM153.917 69.4911C153.235 69.8945 152.457 70.1254 151.446 70.1254V81.9094C154.45 81.9094 157.32 81.1698 159.918 79.6321L153.917 69.4911Z" fill="black" mask="url(#path-8-outside-3_3683_23747)"/>
<mask id="mask1_3683_23747" style="mask-type:alpha" maskUnits="userSpaceOnUse" x="6" y="1" width="60" height="125">
<mask id="path-10-outside-4_3683_23747" maskUnits="userSpaceOnUse" x="6" y="1" width="60" height="125" fill="black">
<rect fill="white" x="6" y="1" width="60" height="125"/>
<path d="M12.8011 75.0503V53.4641C12.8011 49.7492 13.6378 46.5197 15.3112 43.7754C17.018 40.9976 19.3607 38.8557 22.3392 37.3497C25.3513 35.8102 28.8486 35.0405 32.8312 35.0405H40.06C44.0426 35.0405 47.5232 35.8102 50.5018 37.3497C53.5138 38.8557 55.8565 40.9976 57.5298 43.7754C59.2367 46.5197 60.0901 49.7492 60.0901 53.4641V75.0503C60.0901 76.3221 59.655 77.393 58.7849 78.2632C57.9147 79.0998 56.8605 79.5182 55.6222 79.5182C54.3839 79.5182 53.3297 79.0998 52.4596 78.2632C51.6229 77.393 51.2046 76.3221 51.2046 75.0503V55.7231C51.2046 54.6522 50.6524 54.1167 49.5479 54.1167C48.477 54.1167 47.9415 54.6522 47.9415 55.7231V114.257C47.9415 115.629 47.4563 116.784 46.4857 117.721C45.5486 118.658 44.394 119.126 43.0219 119.126C41.6497 119.126 40.4951 118.658 39.558 117.721C38.621 116.784 38.1524 115.629 38.1524 114.257V78.6648C38.1524 78.1962 37.9851 77.7946 37.6504 77.46C37.3157 77.1253 36.9141 76.9579 36.4456 76.9579C35.9771 76.9579 35.5755 77.1253 35.2408 77.46C34.9396 77.7946 34.789 78.1962 34.789 78.6648V114.257C34.789 115.629 34.3037 116.784 33.3332 117.721C32.3961 118.658 31.2415 119.126 29.8693 119.126C28.4972 119.126 27.3258 118.658 26.3553 117.721C25.4182 116.784 24.9497 115.629 24.9497 114.257V55.7231C24.9497 54.6522 24.4142 54.1167 23.3433 54.1167C22.2388 54.1167 21.6866 54.6522 21.6866 55.7231V75.0503C21.6866 76.3221 21.2516 77.393 20.3814 78.2632C19.5447 79.0998 18.5073 79.5182 17.269 79.5182C16.0307 79.5182 14.9765 79.0998 14.1064 78.2632C13.2362 77.393 12.8011 76.3221 12.8011 75.0503ZM36.4456 29.2674C34.4376 29.2674 32.5969 28.7821 30.9235 27.8116C29.2837 26.8076 27.9617 25.4856 26.9577 23.8458C25.9872 22.1724 25.5019 20.3317 25.5019 18.3237C25.5019 16.2822 25.9872 14.4415 26.9577 12.8016C27.9617 11.1618 29.2837 9.85654 30.9235 8.88599C32.5969 7.88198 34.4376 7.37998 36.4456 7.37998C38.4536 7.37998 40.2776 7.88198 41.9175 8.88599C43.5908 9.85654 44.9128 11.1618 45.8833 12.8016C46.8873 14.4415 47.3893 16.2822 47.3893 18.3237C47.3893 20.3317 46.8873 22.1724 45.8833 23.8458C44.9128 25.4856 43.5908 26.8076 41.9175 27.8116C40.2776 28.7821 38.4536 29.2674 36.4456 29.2674Z"/>
</mask>
<path d="M12.8011 75.0503V53.4641C12.8011 49.7492 13.6378 46.5197 15.3112 43.7754C17.018 40.9976 19.3607 38.8557 22.3392 37.3497C25.3513 35.8102 28.8486 35.0405 32.8312 35.0405H40.06C44.0426 35.0405 47.5232 35.8102 50.5018 37.3497C53.5138 38.8557 55.8565 40.9976 57.5298 43.7754C59.2367 46.5197 60.0901 49.7492 60.0901 53.4641V75.0503C60.0901 76.3221 59.655 77.393 58.7849 78.2632C57.9147 79.0998 56.8605 79.5182 55.6222 79.5182C54.3839 79.5182 53.3297 79.0998 52.4596 78.2632C51.6229 77.393 51.2046 76.3221 51.2046 75.0503V55.7231C51.2046 54.6522 50.6524 54.1167 49.5479 54.1167C48.477 54.1167 47.9415 54.6522 47.9415 55.7231V114.257C47.9415 115.629 47.4563 116.784 46.4857 117.721C45.5486 118.658 44.394 119.126 43.0219 119.126C41.6497 119.126 40.4951 118.658 39.558 117.721C38.621 116.784 38.1524 115.629 38.1524 114.257V78.6648C38.1524 78.1962 37.9851 77.7946 37.6504 77.46C37.3157 77.1253 36.9141 76.9579 36.4456 76.9579C35.9771 76.9579 35.5755 77.1253 35.2408 77.46C34.9396 77.7946 34.789 78.1962 34.789 78.6648V114.257C34.789 115.629 34.3037 116.784 33.3332 117.721C32.3961 118.658 31.2415 119.126 29.8693 119.126C28.4972 119.126 27.3258 118.658 26.3553 117.721C25.4182 116.784 24.9497 115.629 24.9497 114.257V55.7231C24.9497 54.6522 24.4142 54.1167 23.3433 54.1167C22.2388 54.1167 21.6866 54.6522 21.6866 55.7231V75.0503C21.6866 76.3221 21.2516 77.393 20.3814 78.2632C19.5447 79.0998 18.5073 79.5182 17.269 79.5182C16.0307 79.5182 14.9765 79.0998 14.1064 78.2632C13.2362 77.393 12.8011 76.3221 12.8011 75.0503ZM36.4456 29.2674C34.4376 29.2674 32.5969 28.7821 30.9235 27.8116C29.2837 26.8076 27.9617 25.4856 26.9577 23.8458C25.9872 22.1724 25.5019 20.3317 25.5019 18.3237C25.5019 16.2822 25.9872 14.4415 26.9577 12.8016C27.9617 11.1618 29.2837 9.85654 30.9235 8.88599C32.5969 7.88198 34.4376 7.37998 36.4456 7.37998C38.4536 7.37998 40.2776 7.88198 41.9175 8.88599C43.5908 9.85654 44.9128 11.1618 45.8833 12.8016C46.8873 14.4415 47.3893 16.2822 47.3893 18.3237C47.3893 20.3317 46.8873 22.1724 45.8833 23.8458C44.9128 25.4856 43.5908 26.8076 41.9175 27.8116C40.2776 28.7821 38.4536 29.2674 36.4456 29.2674Z" fill="#DEF358"/>
<path d="M15.3112 43.7754L10.2911 40.6908L10.2858 40.6994L10.2806 40.708L15.3112 43.7754ZM22.3392 37.3497L24.9978 42.6078L25.0093 42.602L25.0208 42.5961L22.3392 37.3497ZM50.5018 37.3497L47.7964 42.5839L47.8315 42.602L47.8668 42.6197L50.5018 37.3497ZM57.5298 43.7754L52.4829 46.8157L52.5045 46.8516L52.5266 46.8872L57.5298 43.7754ZM58.7849 78.2632L62.8686 82.5103L62.9103 82.4703L62.9511 82.4294L58.7849 78.2632ZM52.4596 78.2632L48.2124 82.347L48.2925 82.4302L48.3758 82.5103L52.4596 78.2632ZM46.4857 117.721L42.3932 113.482L42.356 113.518L42.3194 113.555L46.4857 117.721ZM35.2408 77.46L31.0745 73.2937L30.965 73.4032L30.8613 73.5184L35.2408 77.46ZM33.3332 117.721L29.2406 113.482L29.2034 113.518L29.1669 113.555L33.3332 117.721ZM26.3553 117.721L22.189 121.887L22.2256 121.924L22.2627 121.96L26.3553 117.721ZM14.1064 78.2632L9.94008 82.4294L9.98092 82.4703L10.0226 82.5103L14.1064 78.2632ZM30.9235 27.8116L27.847 32.8366L27.9068 32.8732L27.9674 32.9084L30.9235 27.8116ZM26.9577 23.8458L21.8609 26.8019L21.8961 26.8625L21.9327 26.9223L26.9577 23.8458ZM26.9577 12.8016L21.9327 9.7251L21.9097 9.76274L21.8872 9.80072L26.9577 12.8016ZM30.9235 8.88599L33.9245 13.9565L33.9397 13.9475L33.955 13.9383L30.9235 8.88599ZM41.9175 8.88599L38.8409 13.911L38.9007 13.9476L38.9613 13.9828L41.9175 8.88599ZM45.8833 12.8016L40.8128 15.8026L40.8353 15.8405L40.8583 15.8782L45.8833 12.8016ZM45.8833 23.8458L40.831 20.8143L40.8218 20.8296L40.8128 20.8448L45.8833 23.8458ZM41.9175 27.8116L44.9184 32.8821L44.9337 32.8731L44.9489 32.8639L41.9175 27.8116ZM18.6931 75.0503V53.4641H6.90914V75.0503H18.6931ZM18.6931 53.4641C18.6931 50.6599 19.3148 48.5269 20.3417 46.8428L10.2806 40.708C7.9608 44.5124 6.90914 48.8386 6.90914 53.4641H18.6931ZM20.3312 46.86C21.4531 45.0342 22.968 43.6341 24.9978 42.6078L19.6807 32.0916C15.7533 34.0773 12.5829 36.961 10.2911 40.6908L20.3312 46.86ZM25.0208 42.5961C27.0673 41.5501 29.616 40.9325 32.8312 40.9325V29.1485C28.0811 29.1485 23.6353 30.0703 19.6577 32.1033L25.0208 42.5961ZM32.8312 40.9325H40.06V29.1485H32.8312V40.9325ZM40.06 40.9325C43.2772 40.9325 45.7976 41.5508 47.7964 42.5839L53.2071 32.1155C49.2488 30.0696 44.808 29.1485 40.06 29.1485V40.9325ZM47.8668 42.6197C49.9202 43.6464 51.4088 45.0328 52.4829 46.8157L62.5768 40.735C60.3042 36.9624 57.1074 34.0651 53.1367 32.0797L47.8668 42.6197ZM52.5266 46.8872C53.5698 48.5645 54.1981 50.6812 54.1981 53.4641H65.9821C65.9821 48.8172 64.9035 44.4748 62.5331 40.6636L52.5266 46.8872ZM54.1981 53.4641V75.0503H65.9821V53.4641H54.1981ZM54.1981 75.0503C54.1981 75.0023 54.209 74.826 54.305 74.5897C54.4026 74.3495 54.5334 74.1821 54.6186 74.0969L62.9511 82.4294C64.9669 80.4137 65.9821 77.8263 65.9821 75.0503H54.1981ZM54.7011 74.016C54.7812 73.939 54.94 73.8185 55.1683 73.7279C55.3939 73.6384 55.5658 73.6262 55.6222 73.6262V85.4102C58.3394 85.4102 60.8698 84.4323 62.8686 82.5103L54.7011 74.016ZM55.6222 73.6262C55.6787 73.6262 55.8505 73.6384 56.0761 73.7279C56.3044 73.8185 56.4633 73.939 56.5434 74.016L48.3758 82.5103C50.3746 84.4323 52.905 85.4102 55.6222 85.4102V73.6262ZM56.7067 74.1794C56.7984 74.2747 56.9196 74.4413 57.0065 74.6635C57.0911 74.8802 57.0966 75.0305 57.0966 75.0503H45.3126C45.3126 77.7547 46.2596 80.316 48.2124 82.347L56.7067 74.1794ZM57.0966 75.0503V55.7231H45.3126V75.0503H57.0966ZM57.0966 55.7231C57.0966 54.2326 56.7019 52.0434 54.8921 50.2884C53.116 48.5661 50.9637 48.2247 49.5479 48.2247V60.0087C49.2366 60.0087 47.9126 59.935 46.6887 58.7482C45.4311 57.5287 45.3126 56.1427 45.3126 55.7231H57.0966ZM49.5479 48.2247C48.1043 48.2247 45.9393 48.5896 44.1769 50.352C42.4144 52.1144 42.0495 54.2794 42.0495 55.7231H53.8335C53.8335 56.0959 53.7364 57.4576 52.5094 58.6846C51.2825 59.9115 49.9207 60.0087 49.5479 60.0087V48.2247ZM42.0495 55.7231V114.257H53.8335V55.7231H42.0495ZM42.0495 114.257C42.0495 114.234 42.0568 114.081 42.1458 113.869C42.2358 113.655 42.349 113.525 42.3932 113.482L50.5783 121.96C52.7208 119.891 53.8335 117.197 53.8335 114.257H42.0495ZM42.3194 113.555C42.3722 113.502 42.5029 113.396 42.7015 113.315C42.8959 113.236 43.0255 113.234 43.0219 113.234V125.018C45.8949 125.018 48.567 123.972 50.652 121.887L42.3194 113.555ZM43.0219 113.234C43.0182 113.234 43.1478 113.236 43.3423 113.315C43.5408 113.396 43.6715 113.502 43.7243 113.555L35.3918 121.887C37.4768 123.972 40.1489 125.018 43.0219 125.018V113.234ZM43.7243 113.555C43.7771 113.607 43.8829 113.738 43.9634 113.937C44.0423 114.131 44.0444 114.261 44.0444 114.257H32.2604C32.2604 117.13 33.3068 119.802 35.3918 121.887L43.7243 113.555ZM44.0444 114.257V78.6648H32.2604V114.257H44.0444ZM44.0444 78.6648C44.0444 76.6158 43.2437 74.7207 41.8167 73.2937L33.4841 81.6262C33.1554 81.2975 32.8256 80.8481 32.5882 80.2783C32.3502 79.7073 32.2604 79.1479 32.2604 78.6648H44.0444ZM41.8167 73.2937C40.3897 71.8667 38.4945 71.0659 36.4456 71.0659V82.8499C35.9624 82.8499 35.4031 82.7601 34.8321 82.5222C34.2622 82.2848 33.8129 81.9549 33.4841 81.6262L41.8167 73.2937ZM36.4456 71.0659C34.3967 71.0659 32.5015 71.8667 31.0745 73.2937L39.4071 81.6262C39.0783 81.9549 38.629 82.2848 38.0592 82.5222C37.4881 82.7601 36.9288 82.8499 36.4456 82.8499V71.0659ZM30.8613 73.5184C29.5438 74.9823 28.897 76.8056 28.897 78.6648H40.681C40.681 79.0717 40.6135 79.5617 40.4188 80.081C40.2227 80.604 39.9377 81.0488 39.6203 81.4015L30.8613 73.5184ZM28.897 78.6648V114.257H40.681V78.6648H28.897ZM28.897 114.257C28.897 114.234 28.9042 114.081 28.9933 113.869C29.0832 113.655 29.1964 113.525 29.2406 113.482L37.4257 121.96C39.5682 119.891 40.681 117.197 40.681 114.257H28.897ZM29.1669 113.555C29.2197 113.502 29.3504 113.396 29.5489 113.315C29.7434 113.236 29.873 113.234 29.8693 113.234V125.018C32.7423 125.018 35.4145 123.972 37.4994 121.887L29.1669 113.555ZM29.8693 113.234C29.8668 113.234 29.9809 113.237 30.1499 113.304C30.3209 113.373 30.4226 113.458 30.4478 113.482L22.2627 121.96C24.3525 123.977 26.9994 125.018 29.8693 125.018V113.234ZM30.5216 113.555C30.5743 113.607 30.6801 113.738 30.7607 113.937C30.8396 114.131 30.8417 114.261 30.8417 114.257H19.0577C19.0577 117.13 20.104 119.802 22.189 121.887L30.5216 113.555ZM30.8417 114.257V55.7231H19.0577V114.257H30.8417ZM30.8417 55.7231C30.8417 54.2794 30.4768 52.1144 28.7143 50.352C26.9519 48.5896 24.787 48.2247 23.3433 48.2247V60.0087C22.9705 60.0087 21.6087 59.9115 20.3818 58.6846C19.1549 57.4576 19.0577 56.0959 19.0577 55.7231H30.8417ZM23.3433 48.2247C21.9275 48.2247 19.7752 48.5661 17.9991 50.2884C16.1893 52.0434 15.7946 54.2326 15.7946 55.7231H27.5786C27.5786 56.1427 27.4601 57.5287 26.2025 58.7482C24.9786 59.935 23.6546 60.0087 23.3433 60.0087V48.2247ZM15.7946 55.7231V75.0503H27.5786V55.7231H15.7946ZM15.7946 75.0503C15.7946 75.0023 15.8056 74.826 15.9016 74.5897C15.9992 74.3495 16.13 74.1821 16.2152 74.0969L24.5477 82.4294C26.5635 80.4137 27.5786 77.8263 27.5786 75.0503H15.7946ZM16.2152 74.0969C16.3243 73.9878 16.5143 73.844 16.7724 73.7399C17.0252 73.638 17.2139 73.6262 17.269 73.6262V85.4102C19.989 85.4102 22.5501 84.427 24.5477 82.4294L16.2152 74.0969ZM17.269 73.6262C17.3254 73.6262 17.4973 73.6384 17.7229 73.7279C17.9512 73.8185 18.11 73.939 18.1902 74.016L10.0226 82.5103C12.0214 84.4323 14.5518 85.4102 17.269 85.4102V73.6262ZM18.2726 74.0969C18.3578 74.1821 18.4886 74.3495 18.5862 74.5897C18.6822 74.826 18.6931 75.0023 18.6931 75.0503H6.90914C6.90914 77.8263 7.92433 80.4137 9.94008 82.4294L18.2726 74.0969ZM36.4456 23.3754C35.4346 23.3754 34.6199 23.1442 33.8797 22.7148L27.9674 32.9084C30.5739 34.4201 33.4406 35.1594 36.4456 35.1594V23.3754ZM34.0001 22.7866C33.1546 22.2689 32.5004 21.6147 31.9827 20.7692L21.9327 26.9223C23.4231 29.3565 25.4128 31.3462 27.847 32.8366L34.0001 22.7866ZM32.0545 20.8896C31.6251 20.1494 31.3939 19.3347 31.3939 18.3237H19.6099C19.6099 21.3287 20.3492 24.1954 21.8609 26.8019L32.0545 20.8896ZM31.3939 18.3237C31.3939 17.2599 31.6339 16.4689 32.0282 15.8026L21.8872 9.80072C20.3404 12.4142 19.6099 15.3045 19.6099 18.3237H31.3939ZM31.9827 15.8782C32.4895 15.0504 33.1196 14.4328 33.9245 13.9565L27.9226 3.81547C25.4477 5.28022 23.4339 7.27315 21.9327 9.7251L31.9827 15.8782ZM33.955 13.9383C34.6851 13.5002 35.473 13.272 36.4456 13.272V1.48797C33.4022 1.48797 30.5087 2.26373 27.8921 3.83364L33.955 13.9383ZM36.4456 13.272C37.4182 13.272 38.1691 13.4997 38.8409 13.911L44.994 3.86099C42.386 2.26427 39.489 1.48797 36.4456 1.48797V13.272ZM38.9613 13.9828C39.7759 14.4552 40.3641 15.0444 40.8128 15.8026L50.9538 9.80072C49.4614 7.27907 47.4057 5.25784 44.8736 3.78923L38.9613 13.9828ZM40.8583 15.8782C41.2599 16.5342 41.4973 17.2981 41.4973 18.3237H53.2813C53.2813 15.2663 52.5147 12.3489 50.9083 9.7251L40.8583 15.8782ZM41.4973 18.3237C41.4973 19.2963 41.2691 20.0842 40.831 20.8143L50.9357 26.8772C52.5056 24.2606 53.2813 21.3671 53.2813 18.3237H41.4973ZM40.8128 20.8448C40.3533 21.6212 39.7409 22.2464 38.8861 22.7593L44.9489 32.8639C47.4408 31.3688 49.4722 29.3501 50.9538 26.8467L40.8128 20.8448ZM38.9165 22.7411C38.2349 23.1445 37.4569 23.3754 36.4456 23.3754V35.1594C39.4503 35.1594 42.3203 34.4198 44.9184 32.8821L38.9165 22.7411Z" fill="black" mask="url(#path-10-outside-4_3683_23747)"/>
</mask>
<g mask="url(#mask1_3683_23747)">
<mask id="path-12-outside-5_3683_23747" maskUnits="userSpaceOnUse" x="6" y="1" width="60" height="125" fill="black">
<rect fill="white" x="6" y="1" width="60" height="125"/>
<path d="M12.8011 75.0503V53.4641C12.8011 49.7492 13.6378 46.5197 15.3112 43.7754C17.018 40.9976 19.3607 38.8557 22.3392 37.3497C25.3513 35.8102 28.8486 35.0405 32.8312 35.0405H40.06C44.0426 35.0405 47.5232 35.8102 50.5018 37.3497C53.5138 38.8557 55.8565 40.9976 57.5298 43.7754C59.2367 46.5197 60.0901 49.7492 60.0901 53.4641V75.0503C60.0901 76.3221 59.655 77.393 58.7849 78.2632C57.9147 79.0998 56.8605 79.5182 55.6222 79.5182C54.3839 79.5182 53.3297 79.0998 52.4596 78.2632C51.6229 77.393 51.2046 76.3221 51.2046 75.0503V55.7231C51.2046 54.6522 50.6524 54.1167 49.5479 54.1167C48.477 54.1167 47.9415 54.6522 47.9415 55.7231V114.257C47.9415 115.629 47.4563 116.784 46.4857 117.721C45.5486 118.658 44.394 119.126 43.0219 119.126C41.6497 119.126 40.4951 118.658 39.558 117.721C38.621 116.784 38.1524 115.629 38.1524 114.257V78.6648C38.1524 78.1962 37.9851 77.7946 37.6504 77.46C37.3157 77.1253 36.9141 76.9579 36.4456 76.9579C35.9771 76.9579 35.5755 77.1253 35.2408 77.46C34.9396 77.7946 34.789 78.1962 34.789 78.6648V114.257C34.789 115.629 34.3037 116.784 33.3332 117.721C32.3961 118.658 31.2415 119.126 29.8693 119.126C28.4972 119.126 27.3258 118.658 26.3553 117.721C25.4182 116.784 24.9497 115.629 24.9497 114.257V55.7231C24.9497 54.6522 24.4142 54.1167 23.3433 54.1167C22.2388 54.1167 21.6866 54.6522 21.6866 55.7231V75.0503C21.6866 76.3221 21.2516 77.393 20.3814 78.2632C19.5447 79.0998 18.5073 79.5182 17.269 79.5182C16.0307 79.5182 14.9765 79.0998 14.1064 78.2632C13.2362 77.393 12.8011 76.3221 12.8011 75.0503ZM36.4456 29.2674C34.4376 29.2674 32.5969 28.7821 30.9235 27.8116C29.2837 26.8076 27.9617 25.4856 26.9577 23.8458C25.9872 22.1724 25.5019 20.3317 25.5019 18.3237C25.5019 16.2822 25.9872 14.4415 26.9577 12.8016C27.9617 11.1618 29.2837 9.85654 30.9235 8.88599C32.5969 7.88198 34.4376 7.37998 36.4456 7.37998C38.4536 7.37998 40.2776 7.88198 41.9175 8.88599C43.5908 9.85654 44.9128 11.1618 45.8833 12.8016C46.8873 14.4415 47.3893 16.2822 47.3893 18.3237C47.3893 20.3317 46.8873 22.1724 45.8833 23.8458C44.9128 25.4856 43.5908 26.8076 41.9175 27.8116C40.2776 28.7821 38.4536 29.2674 36.4456 29.2674Z"/>
</mask>
<path d="M12.8011 75.0503V53.4641C12.8011 49.7492 13.6378 46.5197 15.3112 43.7754C17.018 40.9976 19.3607 38.8557 22.3392 37.3497C25.3513 35.8102 28.8486 35.0405 32.8312 35.0405H40.06C44.0426 35.0405 47.5232 35.8102 50.5018 37.3497C53.5138 38.8557 55.8565 40.9976 57.5298 43.7754C59.2367 46.5197 60.0901 49.7492 60.0901 53.4641V75.0503C60.0901 76.3221 59.655 77.393 58.7849 78.2632C57.9147 79.0998 56.8605 79.5182 55.6222 79.5182C54.3839 79.5182 53.3297 79.0998 52.4596 78.2632C51.6229 77.393 51.2046 76.3221 51.2046 75.0503V55.7231C51.2046 54.6522 50.6524 54.1167 49.5479 54.1167C48.477 54.1167 47.9415 54.6522 47.9415 55.7231V114.257C47.9415 115.629 47.4563 116.784 46.4857 117.721C45.5486 118.658 44.394 119.126 43.0219 119.126C41.6497 119.126 40.4951 118.658 39.558 117.721C38.621 116.784 38.1524 115.629 38.1524 114.257V78.6648C38.1524 78.1962 37.9851 77.7946 37.6504 77.46C37.3157 77.1253 36.9141 76.9579 36.4456 76.9579C35.9771 76.9579 35.5755 77.1253 35.2408 77.46C34.9396 77.7946 34.789 78.1962 34.789 78.6648V114.257C34.789 115.629 34.3037 116.784 33.3332 117.721C32.3961 118.658 31.2415 119.126 29.8693 119.126C28.4972 119.126 27.3258 118.658 26.3553 117.721C25.4182 116.784 24.9497 115.629 24.9497 114.257V55.7231C24.9497 54.6522 24.4142 54.1167 23.3433 54.1167C22.2388 54.1167 21.6866 54.6522 21.6866 55.7231V75.0503C21.6866 76.3221 21.2516 77.393 20.3814 78.2632C19.5447 79.0998 18.5073 79.5182 17.269 79.5182C16.0307 79.5182 14.9765 79.0998 14.1064 78.2632C13.2362 77.393 12.8011 76.3221 12.8011 75.0503ZM36.4456 29.2674C34.4376 29.2674 32.5969 28.7821 30.9235 27.8116C29.2837 26.8076 27.9617 25.4856 26.9577 23.8458C25.9872 22.1724 25.5019 20.3317 25.5019 18.3237C25.5019 16.2822 25.9872 14.4415 26.9577 12.8016C27.9617 11.1618 29.2837 9.85654 30.9235 8.88599C32.5969 7.88198 34.4376 7.37998 36.4456 7.37998C38.4536 7.37998 40.2776 7.88198 41.9175 8.88599C43.5908 9.85654 44.9128 11.1618 45.8833 12.8016C46.8873 14.4415 47.3893 16.2822 47.3893 18.3237C47.3893 20.3317 46.8873 22.1724 45.8833 23.8458C44.9128 25.4856 43.5908 26.8076 41.9175 27.8116C40.2776 28.7821 38.4536 29.2674 36.4456 29.2674Z" fill="#DEF358"/>
<path d="M15.3112 43.7754L10.2911 40.6908L10.2858 40.6994L10.2806 40.708L15.3112 43.7754ZM22.3392 37.3497L24.9978 42.6078L25.0093 42.602L25.0208 42.5961L22.3392 37.3497ZM50.5018 37.3497L47.7964 42.5839L47.8315 42.602L47.8668 42.6197L50.5018 37.3497ZM57.5298 43.7754L52.4829 46.8157L52.5045 46.8516L52.5266 46.8872L57.5298 43.7754ZM58.7849 78.2632L62.8686 82.5103L62.9103 82.4703L62.9511 82.4294L58.7849 78.2632ZM52.4596 78.2632L48.2124 82.347L48.2925 82.4302L48.3758 82.5103L52.4596 78.2632ZM46.4857 117.721L42.3932 113.482L42.356 113.518L42.3194 113.555L46.4857 117.721ZM35.2408 77.46L31.0745 73.2937L30.965 73.4032L30.8613 73.5184L35.2408 77.46ZM33.3332 117.721L29.2406 113.482L29.2034 113.518L29.1669 113.555L33.3332 117.721ZM26.3553 117.721L22.189 121.887L22.2256 121.924L22.2627 121.96L26.3553 117.721ZM14.1064 78.2632L9.94008 82.4294L9.98092 82.4703L10.0226 82.5103L14.1064 78.2632ZM30.9235 27.8116L27.847 32.8366L27.9068 32.8732L27.9674 32.9084L30.9235 27.8116ZM26.9577 23.8458L21.8609 26.8019L21.8961 26.8625L21.9327 26.9223L26.9577 23.8458ZM26.9577 12.8016L21.9327 9.7251L21.9097 9.76274L21.8872 9.80072L26.9577 12.8016ZM30.9235 8.88599L33.9245 13.9565L33.9397 13.9475L33.955 13.9383L30.9235 8.88599ZM41.9175 8.88599L38.8409 13.911L38.9007 13.9476L38.9613 13.9828L41.9175 8.88599ZM45.8833 12.8016L40.8128 15.8026L40.8353 15.8405L40.8583 15.8782L45.8833 12.8016ZM45.8833 23.8458L40.831 20.8143L40.8218 20.8296L40.8128 20.8448L45.8833 23.8458ZM41.9175 27.8116L44.9184 32.8821L44.9337 32.8731L44.9489 32.8639L41.9175 27.8116ZM18.6931 75.0503V53.4641H6.90914V75.0503H18.6931ZM18.6931 53.4641C18.6931 50.6599 19.3148 48.5269 20.3417 46.8428L10.2806 40.708C7.9608 44.5124 6.90914 48.8386 6.90914 53.4641H18.6931ZM20.3312 46.86C21.4531 45.0342 22.968 43.6341 24.9978 42.6078L19.6807 32.0916C15.7533 34.0773 12.5829 36.961 10.2911 40.6908L20.3312 46.86ZM25.0208 42.5961C27.0673 41.5501 29.616 40.9325 32.8312 40.9325V29.1485C28.0811 29.1485 23.6353 30.0703 19.6577 32.1033L25.0208 42.5961ZM32.8312 40.9325H40.06V29.1485H32.8312V40.9325ZM40.06 40.9325C43.2772 40.9325 45.7976 41.5508 47.7964 42.5839L53.2071 32.1155C49.2488 30.0696 44.808 29.1485 40.06 29.1485V40.9325ZM47.8668 42.6197C49.9202 43.6464 51.4088 45.0328 52.4829 46.8157L62.5768 40.735C60.3042 36.9624 57.1074 34.0651 53.1367 32.0797L47.8668 42.6197ZM52.5266 46.8872C53.5698 48.5645 54.1981 50.6812 54.1981 53.4641H65.9821C65.9821 48.8172 64.9035 44.4748 62.5331 40.6636L52.5266 46.8872ZM54.1981 53.4641V75.0503H65.9821V53.4641H54.1981ZM54.1981 75.0503C54.1981 75.0023 54.209 74.826 54.305 74.5897C54.4026 74.3495 54.5334 74.1821 54.6186 74.0969L62.9511 82.4294C64.9669 80.4137 65.9821 77.8263 65.9821 75.0503H54.1981ZM54.7011 74.016C54.7812 73.939 54.94 73.8185 55.1683 73.7279C55.3939 73.6384 55.5658 73.6262 55.6222 73.6262V85.4102C58.3394 85.4102 60.8698 84.4323 62.8686 82.5103L54.7011 74.016ZM55.6222 73.6262C55.6787 73.6262 55.8505 73.6384 56.0761 73.7279C56.3044 73.8185 56.4633 73.939 56.5434 74.016L48.3758 82.5103C50.3746 84.4323 52.905 85.4102 55.6222 85.4102V73.6262ZM56.7067 74.1794C56.7984 74.2747 56.9196 74.4413 57.0065 74.6635C57.0911 74.8802 57.0966 75.0305 57.0966 75.0503H45.3126C45.3126 77.7547 46.2596 80.316 48.2124 82.347L56.7067 74.1794ZM57.0966 75.0503V55.7231H45.3126V75.0503H57.0966ZM57.0966 55.7231C57.0966 54.2326 56.7019 52.0434 54.8921 50.2884C53.116 48.5661 50.9637 48.2247 49.5479 48.2247V60.0087C49.2366 60.0087 47.9126 59.935 46.6887 58.7482C45.4311 57.5287 45.3126 56.1427 45.3126 55.7231H57.0966ZM49.5479 48.2247C48.1043 48.2247 45.9393 48.5896 44.1769 50.352C42.4144 52.1144 42.0495 54.2794 42.0495 55.7231H53.8335C53.8335 56.0959 53.7364 57.4576 52.5094 58.6846C51.2825 59.9115 49.9207 60.0087 49.5479 60.0087V48.2247ZM42.0495 55.7231V114.257H53.8335V55.7231H42.0495ZM42.0495 114.257C42.0495 114.234 42.0568 114.081 42.1458 113.869C42.2358 113.655 42.349 113.525 42.3932 113.482L50.5783 121.96C52.7208 119.891 53.8335 117.197 53.8335 114.257H42.0495ZM42.3194 113.555C42.3722 113.502 42.5029 113.396 42.7015 113.315C42.8959 113.236 43.0255 113.234 43.0219 113.234V125.018C45.8949 125.018 48.567 123.972 50.652 121.887L42.3194 113.555ZM43.0219 113.234C43.0182 113.234 43.1478 113.236 43.3423 113.315C43.5408 113.396 43.6715 113.502 43.7243 113.555L35.3918 121.887C37.4768 123.972 40.1489 125.018 43.0219 125.018V113.234ZM43.7243 113.555C43.7771 113.607 43.8829 113.738 43.9634 113.937C44.0423 114.131 44.0444 114.261 44.0444 114.257H32.2604C32.2604 117.13 33.3068 119.802 35.3918 121.887L43.7243 113.555ZM44.0444 114.257V78.6648H32.2604V114.257H44.0444ZM44.0444 78.6648C44.0444 76.6158 43.2437 74.7207 41.8167 73.2937L33.4841 81.6262C33.1554 81.2975 32.8256 80.8481 32.5882 80.2783C32.3502 79.7073 32.2604 79.1479 32.2604 78.6648H44.0444ZM41.8167 73.2937C40.3897 71.8667 38.4945 71.0659 36.4456 71.0659V82.8499C35.9624 82.8499 35.4031 82.7601 34.8321 82.5222C34.2622 82.2848 33.8129 81.9549 33.4841 81.6262L41.8167 73.2937ZM36.4456 71.0659C34.3967 71.0659 32.5015 71.8667 31.0745 73.2937L39.4071 81.6262C39.0783 81.9549 38.629 82.2848 38.0592 82.5222C37.4881 82.7601 36.9288 82.8499 36.4456 82.8499V71.0659ZM30.8613 73.5184C29.5438 74.9823 28.897 76.8056 28.897 78.6648H40.681C40.681 79.0717 40.6135 79.5617 40.4188 80.081C40.2227 80.604 39.9377 81.0488 39.6203 81.4015L30.8613 73.5184ZM28.897 78.6648V114.257H40.681V78.6648H28.897ZM28.897 114.257C28.897 114.234 28.9042 114.081 28.9933 113.869C29.0832 113.655 29.1964 113.525 29.2406 113.482L37.4257 121.96C39.5682 119.891 40.681 117.197 40.681 114.257H28.897ZM29.1669 113.555C29.2197 113.502 29.3504 113.396 29.5489 113.315C29.7434 113.236 29.873 113.234 29.8693 113.234V125.018C32.7423 125.018 35.4145 123.972 37.4994 121.887L29.1669 113.555ZM29.8693 113.234C29.8668 113.234 29.9809 113.237 30.1499 113.304C30.3209 113.373 30.4226 113.458 30.4478 113.482L22.2627 121.96C24.3525 123.977 26.9994 125.018 29.8693 125.018V113.234ZM30.5216 113.555C30.5743 113.607 30.6801 113.738 30.7607 113.937C30.8396 114.131 30.8417 114.261 30.8417 114.257H19.0577C19.0577 117.13 20.104 119.802 22.189 121.887L30.5216 113.555ZM30.8417 114.257V55.7231H19.0577V114.257H30.8417ZM30.8417 55.7231C30.8417 54.2794 30.4768 52.1144 28.7143 50.352C26.9519 48.5896 24.787 48.2247 23.3433 48.2247V60.0087C22.9705 60.0087 21.6087 59.9115 20.3818 58.6846C19.1549 57.4576 19.0577 56.0959 19.0577 55.7231H30.8417ZM23.3433 48.2247C21.9275 48.2247 19.7752 48.5661 17.9991 50.2884C16.1893 52.0434 15.7946 54.2326 15.7946 55.7231H27.5786C27.5786 56.1427 27.4601 57.5287 26.2025 58.7482C24.9786 59.935 23.6546 60.0087 23.3433 60.0087V48.2247ZM15.7946 55.7231V75.0503H27.5786V55.7231H15.7946ZM15.7946 75.0503C15.7946 75.0023 15.8056 74.826 15.9016 74.5897C15.9992 74.3495 16.13 74.1821 16.2152 74.0969L24.5477 82.4294C26.5635 80.4137 27.5786 77.8263 27.5786 75.0503H15.7946ZM16.2152 74.0969C16.3243 73.9878 16.5143 73.844 16.7724 73.7399C17.0252 73.638 17.2139 73.6262 17.269 73.6262V85.4102C19.989 85.4102 22.5501 84.427 24.5477 82.4294L16.2152 74.0969ZM17.269 73.6262C17.3254 73.6262 17.4973 73.6384 17.7229 73.7279C17.9512 73.8185 18.11 73.939 18.1902 74.016L10.0226 82.5103C12.0214 84.4323 14.5518 85.4102 17.269 85.4102V73.6262ZM18.2726 74.0969C18.3578 74.1821 18.4886 74.3495 18.5862 74.5897C18.6822 74.826 18.6931 75.0023 18.6931 75.0503H6.90914C6.90914 77.8263 7.92433 80.4137 9.94008 82.4294L18.2726 74.0969ZM36.4456 23.3754C35.4346 23.3754 34.6199 23.1442 33.8797 22.7148L27.9674 32.9084C30.5739 34.4201 33.4406 35.1594 36.4456 35.1594V23.3754ZM34.0001 22.7866C33.1546 22.2689 32.5004 21.6147 31.9827 20.7692L21.9327 26.9223C23.4231 29.3565 25.4128 31.3462 27.847 32.8366L34.0001 22.7866ZM32.0545 20.8896C31.6251 20.1494 31.3939 19.3347 31.3939 18.3237H19.6099C19.6099 21.3287 20.3492 24.1954 21.8609 26.8019L32.0545 20.8896ZM31.3939 18.3237C31.3939 17.2599 31.6339 16.4689 32.0282 15.8026L21.8872 9.80072C20.3404 12.4142 19.6099 15.3045 19.6099 18.3237H31.3939ZM31.9827 15.8782C32.4895 15.0504 33.1196 14.4328 33.9245 13.9565L27.9226 3.81547C25.4477 5.28022 23.4339 7.27315 21.9327 9.7251L31.9827 15.8782ZM33.955 13.9383C34.6851 13.5002 35.473 13.272 36.4456 13.272V1.48797C33.4022 1.48797 30.5087 2.26373 27.8921 3.83364L33.955 13.9383ZM36.4456 13.272C37.4182 13.272 38.1691 13.4997 38.8409 13.911L44.994 3.86099C42.386 2.26427 39.489 1.48797 36.4456 1.48797V13.272ZM38.9613 13.9828C39.7759 14.4552 40.3641 15.0444 40.8128 15.8026L50.9538 9.80072C49.4614 7.27907 47.4057 5.25784 44.8736 3.78923L38.9613 13.9828ZM40.8583 15.8782C41.2599 16.5342 41.4973 17.2981 41.4973 18.3237H53.2813C53.2813 15.2663 52.5147 12.3489 50.9083 9.7251L40.8583 15.8782ZM41.4973 18.3237C41.4973 19.2963 41.2691 20.0842 40.831 20.8143L50.9357 26.8772C52.5056 24.2606 53.2813 21.3671 53.2813 18.3237H41.4973ZM40.8128 20.8448C40.3533 21.6212 39.7409 22.2464 38.8861 22.7593L44.9489 32.8639C47.4408 31.3688 49.4722 29.3501 50.9538 26.8467L40.8128 20.8448ZM38.9165 22.7411C38.2349 23.1445 37.4569 23.3754 36.4456 23.3754V35.1594C39.4503 35.1594 42.3203 34.4198 44.9184 32.8821L38.9165 22.7411Z" fill="black" mask="url(#path-12-outside-5_3683_23747)"/>
<g style="mix-blend-mode:multiply">
<path d="M20.875 85.75L49.75 98.375V122.75L34.375 124.875L24 117.75L20.875 85.75Z" fill="#D9F7D4"/>
</g>
</g>
<mask id="mask2_3683_23747" style="mask-type:alpha" maskUnits="userSpaceOnUse" x="45" y="48" width="60" height="124">
<mask id="path-15-outside-6_3683_23747" maskUnits="userSpaceOnUse" x="44.5" y="47.75" width="60" height="125" fill="black">
<rect fill="white" x="44.5" y="47.75" width="60" height="125"/>
<path d="M51.3011 121.8V100.214C51.3011 96.4992 52.1378 93.2697 53.8112 90.5254C55.518 87.7476 57.8607 85.6057 60.8392 84.0997C63.8513 82.5602 67.3486 81.7905 71.3312 81.7905H78.56C82.5426 81.7905 86.0232 82.5602 89.0018 84.0997C92.0138 85.6057 94.3565 87.7476 96.0298 90.5254C97.7367 93.2697 98.5901 96.4992 98.5901 100.214V121.8C98.5901 123.072 98.155 124.143 97.2849 125.013C96.4147 125.85 95.3605 126.268 94.1222 126.268C92.8839 126.268 91.8297 125.85 90.9596 125.013C90.1229 124.143 89.7046 123.072 89.7046 121.8V102.473C89.7046 101.402 89.1524 100.867 88.0479 100.867C86.977 100.867 86.4415 101.402 86.4415 102.473V161.007C86.4415 162.379 85.9563 163.534 84.9857 164.471C84.0486 165.408 82.894 165.876 81.5219 165.876C80.1497 165.876 78.9951 165.408 78.058 164.471C77.121 163.534 76.6524 162.379 76.6524 161.007V125.415C76.6524 124.946 76.4851 124.545 76.1504 124.21C75.8157 123.875 75.4141 123.708 74.9456 123.708C74.4771 123.708 74.0755 123.875 73.7408 124.21C73.4396 124.545 73.289 124.946 73.289 125.415V161.007C73.289 162.379 72.8037 163.534 71.8332 164.471C70.8961 165.408 69.7415 165.876 68.3693 165.876C66.9972 165.876 65.8258 165.408 64.8553 164.471C63.9182 163.534 63.4497 162.379 63.4497 161.007V102.473C63.4497 101.402 62.9142 100.867 61.8433 100.867C60.7388 100.867 60.1866 101.402 60.1866 102.473V121.8C60.1866 123.072 59.7516 124.143 58.8814 125.013C58.0447 125.85 57.0073 126.268 55.769 126.268C54.5307 126.268 53.4765 125.85 52.6064 125.013C51.7362 124.143 51.3011 123.072 51.3011 121.8ZM74.9456 76.0174C72.9376 76.0174 71.0969 75.5321 69.4235 74.5616C67.7837 73.5576 66.4617 72.2356 65.4577 70.5958C64.4872 68.9224 64.0019 67.0817 64.0019 65.0737C64.0019 63.0322 64.4872 61.1915 65.4577 59.5516C66.4617 57.9118 67.7837 56.6065 69.4235 55.636C71.0969 54.632 72.9376 54.13 74.9456 54.13C76.9536 54.13 78.7776 54.632 80.4175 55.636C82.0908 56.6065 83.4128 57.9118 84.3833 59.5516C85.3873 61.1915 85.8893 63.0322 85.8893 65.0737C85.8893 67.0817 85.3873 68.9224 84.3833 70.5958C83.4128 72.2356 82.0908 73.5576 80.4175 74.5616C78.7776 75.5321 76.9536 76.0174 74.9456 76.0174Z"/>
</mask>
<path d="M51.3011 121.8V100.214C51.3011 96.4992 52.1378 93.2697 53.8112 90.5254C55.518 87.7476 57.8607 85.6057 60.8392 84.0997C63.8513 82.5602 67.3486 81.7905 71.3312 81.7905H78.56C82.5426 81.7905 86.0232 82.5602 89.0018 84.0997C92.0138 85.6057 94.3565 87.7476 96.0298 90.5254C97.7367 93.2697 98.5901 96.4992 98.5901 100.214V121.8C98.5901 123.072 98.155 124.143 97.2849 125.013C96.4147 125.85 95.3605 126.268 94.1222 126.268C92.8839 126.268 91.8297 125.85 90.9596 125.013C90.1229 124.143 89.7046 123.072 89.7046 121.8V102.473C89.7046 101.402 89.1524 100.867 88.0479 100.867C86.977 100.867 86.4415 101.402 86.4415 102.473V161.007C86.4415 162.379 85.9563 163.534 84.9857 164.471C84.0486 165.408 82.894 165.876 81.5219 165.876C80.1497 165.876 78.9951 165.408 78.058 164.471C77.121 163.534 76.6524 162.379 76.6524 161.007V125.415C76.6524 124.946 76.4851 124.545 76.1504 124.21C75.8157 123.875 75.4141 123.708 74.9456 123.708C74.4771 123.708 74.0755 123.875 73.7408 124.21C73.4396 124.545 73.289 124.946 73.289 125.415V161.007C73.289 162.379 72.8037 163.534 71.8332 164.471C70.8961 165.408 69.7415 165.876 68.3693 165.876C66.9972 165.876 65.8258 165.408 64.8553 164.471C63.9182 163.534 63.4497 162.379 63.4497 161.007V102.473C63.4497 101.402 62.9142 100.867 61.8433 100.867C60.7388 100.867 60.1866 101.402 60.1866 102.473V121.8C60.1866 123.072 59.7516 124.143 58.8814 125.013C58.0447 125.85 57.0073 126.268 55.769 126.268C54.5307 126.268 53.4765 125.85 52.6064 125.013C51.7362 124.143 51.3011 123.072 51.3011 121.8ZM74.9456 76.0174C72.9376 76.0174 71.0969 75.5321 69.4235 74.5616C67.7837 73.5576 66.4617 72.2356 65.4577 70.5958C64.4872 68.9224 64.0019 67.0817 64.0019 65.0737C64.0019 63.0322 64.4872 61.1915 65.4577 59.5516C66.4617 57.9118 67.7837 56.6065 69.4235 55.636C71.0969 54.632 72.9376 54.13 74.9456 54.13C76.9536 54.13 78.7776 54.632 80.4175 55.636C82.0908 56.6065 83.4128 57.9118 84.3833 59.5516C85.3873 61.1915 85.8893 63.0322 85.8893 65.0737C85.8893 67.0817 85.3873 68.9224 84.3833 70.5958C83.4128 72.2356 82.0908 73.5576 80.4175 74.5616C78.7776 75.5321 76.9536 76.0174 74.9456 76.0174Z" fill="#4DB8A9"/>
<path d="M53.8112 90.5254L48.7911 87.4408L48.7858 87.4494L48.7806 87.458L53.8112 90.5254ZM60.8392 84.0997L63.4978 89.3578L63.5093 89.352L63.5208 89.3461L60.8392 84.0997ZM89.0018 84.0997L86.2964 89.3339L86.3315 89.352L86.3668 89.3697L89.0018 84.0997ZM96.0298 90.5254L90.9829 93.5657L91.0045 93.6016L91.0266 93.6372L96.0298 90.5254ZM97.2849 125.013L101.369 129.26L101.41 129.22L101.451 129.179L97.2849 125.013ZM90.9596 125.013L86.7124 129.097L86.7925 129.18L86.8758 129.26L90.9596 125.013ZM84.9857 164.471L80.8932 160.232L80.856 160.268L80.8194 160.305L84.9857 164.471ZM73.7408 124.21L69.5745 120.044L69.465 120.153L69.3613 120.268L73.7408 124.21ZM71.8332 164.471L67.7406 160.232L67.7034 160.268L67.6669 160.305L71.8332 164.471ZM64.8553 164.471L60.689 168.637L60.7256 168.674L60.7627 168.71L64.8553 164.471ZM52.6064 125.013L48.4401 129.179L48.4809 129.22L48.5226 129.26L52.6064 125.013ZM69.4235 74.5616L66.347 79.5866L66.4068 79.6232L66.4674 79.6584L69.4235 74.5616ZM65.4577 70.5958L60.3609 73.5519L60.3961 73.6125L60.4327 73.6723L65.4577 70.5958ZM65.4577 59.5516L60.4327 56.4751L60.4097 56.5127L60.3872 56.5507L65.4577 59.5516ZM69.4235 55.636L72.4245 60.7065L72.4397 60.6975L72.455 60.6883L69.4235 55.636ZM80.4175 55.636L77.3409 60.661L77.4007 60.6976L77.4613 60.7328L80.4175 55.636ZM84.3833 59.5516L79.3128 62.5526L79.3353 62.5905L79.3583 62.6282L84.3833 59.5516ZM84.3833 70.5958L79.331 67.5643L79.3218 67.5796L79.3128 67.5948L84.3833 70.5958ZM80.4175 74.5616L83.4184 79.6321L83.4337 79.6231L83.4489 79.6139L80.4175 74.5616ZM57.1931 121.8V100.214H45.4091V121.8H57.1931ZM57.1931 100.214C57.1931 97.4099 57.8148 95.2769 58.8417 93.5928L48.7806 87.458C46.4608 91.2624 45.4091 95.5886 45.4091 100.214H57.1931ZM58.8312 93.61C59.9531 91.7842 61.468 90.3841 63.4978 89.3578L58.1807 78.8416C54.2533 80.8273 51.0829 83.711 48.7911 87.4408L58.8312 93.61ZM63.5208 89.3461C65.5673 88.3001 68.116 87.6825 71.3312 87.6825V75.8985C66.5811 75.8985 62.1353 76.8203 58.1577 78.8533L63.5208 89.3461ZM71.3312 87.6825H78.56V75.8985H71.3312V87.6825ZM78.56 87.6825C81.7772 87.6825 84.2976 88.3008 86.2964 89.3339L91.7071 78.8655C87.7488 76.8196 83.308 75.8985 78.56 75.8985V87.6825ZM86.3668 89.3697C88.4202 90.3964 89.9088 91.7828 90.9829 93.5657L101.077 87.485C98.8042 83.7124 95.6074 80.8151 91.6367 78.8297L86.3668 89.3697ZM91.0266 93.6372C92.0698 95.3145 92.6981 97.4312 92.6981 100.214H104.482C104.482 95.5672 103.403 91.2248 101.033 87.4136L91.0266 93.6372ZM92.6981 100.214V121.8H104.482V100.214H92.6981ZM92.6981 121.8C92.6981 121.752 92.709 121.576 92.805 121.34C92.9026 121.1 93.0334 120.932 93.1186 120.847L101.451 129.179C103.467 127.164 104.482 124.576 104.482 121.8H92.6981ZM93.2011 120.766C93.2812 120.689 93.44 120.568 93.6683 120.478C93.8939 120.388 94.0658 120.376 94.1222 120.376V132.16C96.8394 132.16 99.3698 131.182 101.369 129.26L93.2011 120.766ZM94.1222 120.376C94.1787 120.376 94.3505 120.388 94.5761 120.478C94.8044 120.568 94.9633 120.689 95.0434 120.766L86.8758 129.26C88.8746 131.182 91.405 132.16 94.1222 132.16V120.376ZM95.2067 120.929C95.2984 121.025 95.4196 121.191 95.5065 121.414C95.5911 121.63 95.5966 121.78 95.5966 121.8H83.8126C83.8126 124.505 84.7596 127.066 86.7124 129.097L95.2067 120.929ZM95.5966 121.8V102.473H83.8126V121.8H95.5966ZM95.5966 102.473C95.5966 100.983 95.2019 98.7934 93.3921 97.0384C91.616 95.3161 89.4637 94.9747 88.0479 94.9747V106.759C87.7366 106.759 86.4126 106.685 85.1887 105.498C83.9311 104.279 83.8126 102.893 83.8126 102.473H95.5966ZM88.0479 94.9747C86.6043 94.9747 84.4393 95.3396 82.6769 97.102C80.9144 98.8644 80.5495 101.029 80.5495 102.473H92.3335C92.3335 102.846 92.2364 104.208 91.0094 105.435C89.7825 106.662 88.4207 106.759 88.0479 106.759V94.9747ZM80.5495 102.473V161.007H92.3335V102.473H80.5495ZM80.5495 161.007C80.5495 160.984 80.5568 160.831 80.6458 160.619C80.7358 160.405 80.849 160.275 80.8932 160.232L89.0783 168.71C91.2208 166.641 92.3335 163.947 92.3335 161.007H80.5495ZM80.8194 160.305C80.8722 160.252 81.0029 160.146 81.2015 160.065C81.3959 159.986 81.5255 159.984 81.5219 159.984V171.768C84.3949 171.768 87.067 170.722 89.152 168.637L80.8194 160.305ZM81.5219 159.984C81.5182 159.984 81.6478 159.986 81.8423 160.065C82.0408 160.146 82.1715 160.252 82.2243 160.305L73.8918 168.637C75.9768 170.722 78.6489 171.768 81.5219 171.768V159.984ZM82.2243 160.305C82.2771 160.357 82.3829 160.488 82.4634 160.687C82.5423 160.881 82.5444 161.011 82.5444 161.007H70.7604C70.7604 163.88 71.8068 166.552 73.8918 168.637L82.2243 160.305ZM82.5444 161.007V125.415H70.7604V161.007H82.5444ZM82.5444 125.415C82.5444 123.366 81.7437 121.471 80.3167 120.044L71.9841 128.376C71.6554 128.048 71.3256 127.598 71.0882 127.028C70.8502 126.457 70.7604 125.898 70.7604 125.415H82.5444ZM80.3167 120.044C78.8897 118.617 76.9945 117.816 74.9456 117.816V129.6C74.4624 129.6 73.9031 129.51 73.3321 129.272C72.7622 129.035 72.3129 128.705 71.9841 128.376L80.3167 120.044ZM74.9456 117.816C72.8967 117.816 71.0015 118.617 69.5745 120.044L77.9071 128.376C77.5783 128.705 77.129 129.035 76.5592 129.272C75.9881 129.51 75.4288 129.6 74.9456 129.6V117.816ZM69.3613 120.268C68.0438 121.732 67.397 123.556 67.397 125.415H79.181C79.181 125.822 79.1135 126.312 78.9188 126.831C78.7227 127.354 78.4377 127.799 78.1203 128.151L69.3613 120.268ZM67.397 125.415V161.007H79.181V125.415H67.397ZM67.397 161.007C67.397 160.984 67.4042 160.831 67.4933 160.619C67.5832 160.405 67.6964 160.275 67.7406 160.232L75.9257 168.71C78.0682 166.641 79.181 163.947 79.181 161.007H67.397ZM67.6669 160.305C67.7197 160.252 67.8504 160.146 68.0489 160.065C68.2434 159.986 68.373 159.984 68.3693 159.984V171.768C71.2423 171.768 73.9145 170.722 75.9994 168.637L67.6669 160.305ZM68.3693 159.984C68.3668 159.984 68.4809 159.987 68.6499 160.054C68.8209 160.123 68.9226 160.208 68.9478 160.232L60.7627 168.71C62.8525 170.727 65.4994 171.768 68.3693 171.768V159.984ZM69.0216 160.305C69.0743 160.357 69.1801 160.488 69.2607 160.687C69.3396 160.881 69.3417 161.011 69.3417 161.007H57.5577C57.5577 163.88 58.604 166.552 60.689 168.637L69.0216 160.305ZM69.3417 161.007V102.473H57.5577V161.007H69.3417ZM69.3417 102.473C69.3417 101.029 68.9768 98.8644 67.2143 97.102C65.4519 95.3396 63.287 94.9747 61.8433 94.9747V106.759C61.4705 106.759 60.1087 106.662 58.8818 105.435C57.6549 104.208 57.5577 102.846 57.5577 102.473H69.3417ZM61.8433 94.9747C60.4275 94.9747 58.2752 95.3161 56.4991 97.0384C54.6893 98.7934 54.2946 100.983 54.2946 102.473H66.0786C66.0786 102.893 65.9601 104.279 64.7025 105.498C63.4786 106.685 62.1546 106.759 61.8433 106.759V94.9747ZM54.2946 102.473V121.8H66.0786V102.473H54.2946ZM54.2946 121.8C54.2946 121.752 54.3056 121.576 54.4016 121.34C54.4992 121.1 54.63 120.932 54.7152 120.847L63.0477 129.179C65.0635 127.164 66.0786 124.576 66.0786 121.8H54.2946ZM54.7152 120.847C54.8243 120.738 55.0143 120.594 55.2724 120.49C55.5252 120.388 55.7139 120.376 55.769 120.376V132.16C58.489 132.16 61.0501 131.177 63.0477 129.179L54.7152 120.847ZM55.769 120.376C55.8254 120.376 55.9973 120.388 56.2229 120.478C56.4512 120.568 56.61 120.689 56.6902 120.766L48.5226 129.26C50.5214 131.182 53.0518 132.16 55.769 132.16V120.376ZM56.7726 120.847C56.8578 120.932 56.9886 121.1 57.0862 121.34C57.1822 121.576 57.1931 121.752 57.1931 121.8H45.4091C45.4091 124.576 46.4243 127.164 48.4401 129.179L56.7726 120.847ZM74.9456 70.1254C73.9346 70.1254 73.1199 69.8942 72.3797 69.4648L66.4674 79.6584C69.0739 81.1701 71.9406 81.9094 74.9456 81.9094V70.1254ZM72.5001 69.5366C71.6546 69.0189 71.0004 68.3647 70.4827 67.5192L60.4327 73.6723C61.9231 76.1065 63.9128 78.0962 66.347 79.5866L72.5001 69.5366ZM70.5545 67.6396C70.1251 66.8994 69.8939 66.0847 69.8939 65.0737H58.1099C58.1099 68.0787 58.8492 70.9454 60.3609 73.5519L70.5545 67.6396ZM69.8939 65.0737C69.8939 64.0099 70.1339 63.2189 70.5282 62.5526L60.3872 56.5507C58.8404 59.1642 58.1099 62.0545 58.1099 65.0737H69.8939ZM70.4827 62.6282C70.9895 61.8004 71.6196 61.1828 72.4245 60.7065L66.4226 50.5655C63.9477 52.0302 61.9339 54.0231 60.4327 56.4751L70.4827 62.6282ZM72.455 60.6883C73.1851 60.2502 73.973 60.022 74.9456 60.022V48.238C71.9022 48.238 69.0087 49.0137 66.3921 50.5836L72.455 60.6883ZM74.9456 60.022C75.9182 60.022 76.6691 60.2497 77.3409 60.661L83.494 50.611C80.886 49.0143 77.989 48.238 74.9456 48.238V60.022ZM77.4613 60.7328C78.2759 61.2052 78.8641 61.7944 79.3128 62.5526L89.4538 56.5507C87.9614 54.0291 85.9057 52.0078 83.3736 50.5392L77.4613 60.7328ZM79.3583 62.6282C79.7599 63.2842 79.9973 64.0481 79.9973 65.0737H91.7813C91.7813 62.0163 91.0147 59.0989 89.4083 56.4751L79.3583 62.6282ZM79.9973 65.0737C79.9973 66.0463 79.7691 66.8342 79.331 67.5643L89.4357 73.6272C91.0056 71.0106 91.7813 68.1171 91.7813 65.0737H79.9973ZM79.3128 67.5948C78.8533 68.3712 78.2409 68.9964 77.3861 69.5093L83.4489 79.6139C85.9408 78.1188 87.9722 76.1001 89.4538 73.5967L79.3128 67.5948ZM77.4165 69.4911C76.7349 69.8945 75.9569 70.1254 74.9456 70.1254V81.9094C77.9503 81.9094 80.8203 81.1698 83.4184 79.6321L77.4165 69.4911Z" fill="black" mask="url(#path-15-outside-6_3683_23747)"/>
</mask>
<g mask="url(#mask2_3683_23747)">
<mask id="path-17-outside-7_3683_23747" maskUnits="userSpaceOnUse" x="44.5" y="47.75" width="60" height="125" fill="black">
<rect fill="white" x="44.5" y="47.75" width="60" height="125"/>
<path d="M51.3011 121.8V100.214C51.3011 96.4992 52.1378 93.2697 53.8112 90.5254C55.518 87.7476 57.8607 85.6057 60.8392 84.0997C63.8513 82.5602 67.3486 81.7905 71.3312 81.7905H78.56C82.5426 81.7905 86.0232 82.5602 89.0018 84.0997C92.0138 85.6057 94.3565 87.7476 96.0298 90.5254C97.7367 93.2697 98.5901 96.4992 98.5901 100.214V121.8C98.5901 123.072 98.155 124.143 97.2849 125.013C96.4147 125.85 95.3605 126.268 94.1222 126.268C92.8839 126.268 91.8297 125.85 90.9596 125.013C90.1229 124.143 89.7046 123.072 89.7046 121.8V102.473C89.7046 101.402 89.1524 100.867 88.0479 100.867C86.977 100.867 86.4415 101.402 86.4415 102.473V161.007C86.4415 162.379 85.9563 163.534 84.9857 164.471C84.0486 165.408 82.894 165.876 81.5219 165.876C80.1497 165.876 78.9951 165.408 78.058 164.471C77.121 163.534 76.6524 162.379 76.6524 161.007V125.415C76.6524 124.946 76.4851 124.545 76.1504 124.21C75.8157 123.875 75.4141 123.708 74.9456 123.708C74.4771 123.708 74.0755 123.875 73.7408 124.21C73.4396 124.545 73.289 124.946 73.289 125.415V161.007C73.289 162.379 72.8037 163.534 71.8332 164.471C70.8961 165.408 69.7415 165.876 68.3693 165.876C66.9972 165.876 65.8258 165.408 64.8553 164.471C63.9182 163.534 63.4497 162.379 63.4497 161.007V102.473C63.4497 101.402 62.9142 100.867 61.8433 100.867C60.7388 100.867 60.1866 101.402 60.1866 102.473V121.8C60.1866 123.072 59.7516 124.143 58.8814 125.013C58.0447 125.85 57.0073 126.268 55.769 126.268C54.5307 126.268 53.4765 125.85 52.6064 125.013C51.7362 124.143 51.3011 123.072 51.3011 121.8ZM74.9456 76.0174C72.9376 76.0174 71.0969 75.5321 69.4235 74.5616C67.7837 73.5576 66.4617 72.2356 65.4577 70.5958C64.4872 68.9224 64.0019 67.0817 64.0019 65.0737C64.0019 63.0322 64.4872 61.1915 65.4577 59.5516C66.4617 57.9118 67.7837 56.6065 69.4235 55.636C71.0969 54.632 72.9376 54.13 74.9456 54.13C76.9536 54.13 78.7776 54.632 80.4175 55.636C82.0908 56.6065 83.4128 57.9118 84.3833 59.5516C85.3873 61.1915 85.8893 63.0322 85.8893 65.0737C85.8893 67.0817 85.3873 68.9224 84.3833 70.5958C83.4128 72.2356 82.0908 73.5576 80.4175 74.5616C78.7776 75.5321 76.9536 76.0174 74.9456 76.0174Z"/>
</mask>
<path d="M51.3011 121.8V100.214C51.3011 96.4992 52.1378 93.2697 53.8112 90.5254C55.518 87.7476 57.8607 85.6057 60.8392 84.0997C63.8513 82.5602 67.3486 81.7905 71.3312 81.7905H78.56C82.5426 81.7905 86.0232 82.5602 89.0018 84.0997C92.0138 85.6057 94.3565 87.7476 96.0298 90.5254C97.7367 93.2697 98.5901 96.4992 98.5901 100.214V121.8C98.5901 123.072 98.155 124.143 97.2849 125.013C96.4147 125.85 95.3605 126.268 94.1222 126.268C92.8839 126.268 91.8297 125.85 90.9596 125.013C90.1229 124.143 89.7046 123.072 89.7046 121.8V102.473C89.7046 101.402 89.1524 100.867 88.0479 100.867C86.977 100.867 86.4415 101.402 86.4415 102.473V161.007C86.4415 162.379 85.9563 163.534 84.9857 164.471C84.0486 165.408 82.894 165.876 81.5219 165.876C80.1497 165.876 78.9951 165.408 78.058 164.471C77.121 163.534 76.6524 162.379 76.6524 161.007V125.415C76.6524 124.946 76.4851 124.545 76.1504 124.21C75.8157 123.875 75.4141 123.708 74.9456 123.708C74.4771 123.708 74.0755 123.875 73.7408 124.21C73.4396 124.545 73.289 124.946 73.289 125.415V161.007C73.289 162.379 72.8037 163.534 71.8332 164.471C70.8961 165.408 69.7415 165.876 68.3693 165.876C66.9972 165.876 65.8258 165.408 64.8553 164.471C63.9182 163.534 63.4497 162.379 63.4497 161.007V102.473C63.4497 101.402 62.9142 100.867 61.8433 100.867C60.7388 100.867 60.1866 101.402 60.1866 102.473V121.8C60.1866 123.072 59.7516 124.143 58.8814 125.013C58.0447 125.85 57.0073 126.268 55.769 126.268C54.5307 126.268 53.4765 125.85 52.6064 125.013C51.7362 124.143 51.3011 123.072 51.3011 121.8ZM74.9456 76.0174C72.9376 76.0174 71.0969 75.5321 69.4235 74.5616C67.7837 73.5576 66.4617 72.2356 65.4577 70.5958C64.4872 68.9224 64.0019 67.0817 64.0019 65.0737C64.0019 63.0322 64.4872 61.1915 65.4577 59.5516C66.4617 57.9118 67.7837 56.6065 69.4235 55.636C71.0969 54.632 72.9376 54.13 74.9456 54.13C76.9536 54.13 78.7776 54.632 80.4175 55.636C82.0908 56.6065 83.4128 57.9118 84.3833 59.5516C85.3873 61.1915 85.8893 63.0322 85.8893 65.0737C85.8893 67.0817 85.3873 68.9224 84.3833 70.5958C83.4128 72.2356 82.0908 73.5576 80.4175 74.5616C78.7776 75.5321 76.9536 76.0174 74.9456 76.0174Z" fill="#4DB8A9"/>
<path d="M53.8112 90.5254L48.7911 87.4408L48.7858 87.4494L48.7806 87.458L53.8112 90.5254ZM60.8392 84.0997L63.4978 89.3578L63.5093 89.352L63.5208 89.3461L60.8392 84.0997ZM89.0018 84.0997L86.2964 89.3339L86.3315 89.352L86.3668 89.3697L89.0018 84.0997ZM96.0298 90.5254L90.9829 93.5657L91.0045 93.6016L91.0266 93.6372L96.0298 90.5254ZM97.2849 125.013L101.369 129.26L101.41 129.22L101.451 129.179L97.2849 125.013ZM90.9596 125.013L86.7124 129.097L86.7925 129.18L86.8758 129.26L90.9596 125.013ZM84.9857 164.471L80.8932 160.232L80.856 160.268L80.8194 160.305L84.9857 164.471ZM73.7408 124.21L69.5745 120.044L69.465 120.153L69.3613 120.268L73.7408 124.21ZM71.8332 164.471L67.7406 160.232L67.7034 160.268L67.6669 160.305L71.8332 164.471ZM64.8553 164.471L60.689 168.637L60.7256 168.674L60.7627 168.71L64.8553 164.471ZM52.6064 125.013L48.4401 129.179L48.4809 129.22L48.5226 129.26L52.6064 125.013ZM69.4235 74.5616L66.347 79.5866L66.4068 79.6232L66.4674 79.6584L69.4235 74.5616ZM65.4577 70.5958L60.3609 73.5519L60.3961 73.6125L60.4327 73.6723L65.4577 70.5958ZM65.4577 59.5516L60.4327 56.4751L60.4097 56.5127L60.3872 56.5507L65.4577 59.5516ZM69.4235 55.636L72.4245 60.7065L72.4397 60.6975L72.455 60.6883L69.4235 55.636ZM80.4175 55.636L77.3409 60.661L77.4007 60.6976L77.4613 60.7328L80.4175 55.636ZM84.3833 59.5516L79.3128 62.5526L79.3353 62.5905L79.3583 62.6282L84.3833 59.5516ZM84.3833 70.5958L79.331 67.5643L79.3218 67.5796L79.3128 67.5948L84.3833 70.5958ZM80.4175 74.5616L83.4184 79.6321L83.4337 79.6231L83.4489 79.6139L80.4175 74.5616ZM57.1931 121.8V100.214H45.4091V121.8H57.1931ZM57.1931 100.214C57.1931 97.4099 57.8148 95.2769 58.8417 93.5928L48.7806 87.458C46.4608 91.2624 45.4091 95.5886 45.4091 100.214H57.1931ZM58.8312 93.61C59.9531 91.7842 61.468 90.3841 63.4978 89.3578L58.1807 78.8416C54.2533 80.8273 51.0829 83.711 48.7911 87.4408L58.8312 93.61ZM63.5208 89.3461C65.5673 88.3001 68.116 87.6825 71.3312 87.6825V75.8985C66.5811 75.8985 62.1353 76.8203 58.1577 78.8533L63.5208 89.3461ZM71.3312 87.6825H78.56V75.8985H71.3312V87.6825ZM78.56 87.6825C81.7772 87.6825 84.2976 88.3008 86.2964 89.3339L91.7071 78.8655C87.7488 76.8196 83.308 75.8985 78.56 75.8985V87.6825ZM86.3668 89.3697C88.4202 90.3964 89.9088 91.7828 90.9829 93.5657L101.077 87.485C98.8042 83.7124 95.6074 80.8151 91.6367 78.8297L86.3668 89.3697ZM91.0266 93.6372C92.0698 95.3145 92.6981 97.4312 92.6981 100.214H104.482C104.482 95.5672 103.403 91.2248 101.033 87.4136L91.0266 93.6372ZM92.6981 100.214V121.8H104.482V100.214H92.6981ZM92.6981 121.8C92.6981 121.752 92.709 121.576 92.805 121.34C92.9026 121.1 93.0334 120.932 93.1186 120.847L101.451 129.179C103.467 127.164 104.482 124.576 104.482 121.8H92.6981ZM93.2011 120.766C93.2812 120.689 93.44 120.568 93.6683 120.478C93.8939 120.388 94.0658 120.376 94.1222 120.376V132.16C96.8394 132.16 99.3698 131.182 101.369 129.26L93.2011 120.766ZM94.1222 120.376C94.1787 120.376 94.3505 120.388 94.5761 120.478C94.8044 120.568 94.9633 120.689 95.0434 120.766L86.8758 129.26C88.8746 131.182 91.405 132.16 94.1222 132.16V120.376ZM95.2067 120.929C95.2984 121.025 95.4196 121.191 95.5065 121.414C95.5911 121.63 95.5966 121.78 95.5966 121.8H83.8126C83.8126 124.505 84.7596 127.066 86.7124 129.097L95.2067 120.929ZM95.5966 121.8V102.473H83.8126V121.8H95.5966ZM95.5966 102.473C95.5966 100.983 95.2019 98.7934 93.3921 97.0384C91.616 95.3161 89.4637 94.9747 88.0479 94.9747V106.759C87.7366 106.759 86.4126 106.685 85.1887 105.498C83.9311 104.279 83.8126 102.893 83.8126 102.473H95.5966ZM88.0479 94.9747C86.6043 94.9747 84.4393 95.3396 82.6769 97.102C80.9144 98.8644 80.5495 101.029 80.5495 102.473H92.3335C92.3335 102.846 92.2364 104.208 91.0094 105.435C89.7825 106.662 88.4207 106.759 88.0479 106.759V94.9747ZM80.5495 102.473V161.007H92.3335V102.473H80.5495ZM80.5495 161.007C80.5495 160.984 80.5568 160.831 80.6458 160.619C80.7358 160.405 80.849 160.275 80.8932 160.232L89.0783 168.71C91.2208 166.641 92.3335 163.947 92.3335 161.007H80.5495ZM80.8194 160.305C80.8722 160.252 81.0029 160.146 81.2015 160.065C81.3959 159.986 81.5255 159.984 81.5219 159.984V171.768C84.3949 171.768 87.067 170.722 89.152 168.637L80.8194 160.305ZM81.5219 159.984C81.5182 159.984 81.6478 159.986 81.8423 160.065C82.0408 160.146 82.1715 160.252 82.2243 160.305L73.8918 168.637C75.9768 170.722 78.6489 171.768 81.5219 171.768V159.984ZM82.2243 160.305C82.2771 160.357 82.3829 160.488 82.4634 160.687C82.5423 160.881 82.5444 161.011 82.5444 161.007H70.7604C70.7604 163.88 71.8068 166.552 73.8918 168.637L82.2243 160.305ZM82.5444 161.007V125.415H70.7604V161.007H82.5444ZM82.5444 125.415C82.5444 123.366 81.7437 121.471 80.3167 120.044L71.9841 128.376C71.6554 128.048 71.3256 127.598 71.0882 127.028C70.8502 126.457 70.7604 125.898 70.7604 125.415H82.5444ZM80.3167 120.044C78.8897 118.617 76.9945 117.816 74.9456 117.816V129.6C74.4624 129.6 73.9031 129.51 73.3321 129.272C72.7622 129.035 72.3129 128.705 71.9841 128.376L80.3167 120.044ZM74.9456 117.816C72.8967 117.816 71.0015 118.617 69.5745 120.044L77.9071 128.376C77.5783 128.705 77.129 129.035 76.5592 129.272C75.9881 129.51 75.4288 129.6 74.9456 129.6V117.816ZM69.3613 120.268C68.0438 121.732 67.397 123.556 67.397 125.415H79.181C79.181 125.822 79.1135 126.312 78.9188 126.831C78.7227 127.354 78.4377 127.799 78.1203 128.151L69.3613 120.268ZM67.397 125.415V161.007H79.181V125.415H67.397ZM67.397 161.007C67.397 160.984 67.4042 160.831 67.4933 160.619C67.5832 160.405 67.6964 160.275 67.7406 160.232L75.9257 168.71C78.0682 166.641 79.181 163.947 79.181 161.007H67.397ZM67.6669 160.305C67.7197 160.252 67.8504 160.146 68.0489 160.065C68.2434 159.986 68.373 159.984 68.3693 159.984V171.768C71.2423 171.768 73.9145 170.722 75.9994 168.637L67.6669 160.305ZM68.3693 159.984C68.3668 159.984 68.4809 159.987 68.6499 160.054C68.8209 160.123 68.9226 160.208 68.9478 160.232L60.7627 168.71C62.8525 170.727 65.4994 171.768 68.3693 171.768V159.984ZM69.0216 160.305C69.0743 160.357 69.1801 160.488 69.2607 160.687C69.3396 160.881 69.3417 161.011 69.3417 161.007H57.5577C57.5577 163.88 58.604 166.552 60.689 168.637L69.0216 160.305ZM69.3417 161.007V102.473H57.5577V161.007H69.3417ZM69.3417 102.473C69.3417 101.029 68.9768 98.8644 67.2143 97.102C65.4519 95.3396 63.287 94.9747 61.8433 94.9747V106.759C61.4705 106.759 60.1087 106.662 58.8818 105.435C57.6549 104.208 57.5577 102.846 57.5577 102.473H69.3417ZM61.8433 94.9747C60.4275 94.9747 58.2752 95.3161 56.4991 97.0384C54.6893 98.7934 54.2946 100.983 54.2946 102.473H66.0786C66.0786 102.893 65.9601 104.279 64.7025 105.498C63.4786 106.685 62.1546 106.759 61.8433 106.759V94.9747ZM54.2946 102.473V121.8H66.0786V102.473H54.2946ZM54.2946 121.8C54.2946 121.752 54.3056 121.576 54.4016 121.34C54.4992 121.1 54.63 120.932 54.7152 120.847L63.0477 129.179C65.0635 127.164 66.0786 124.576 66.0786 121.8H54.2946ZM54.7152 120.847C54.8243 120.738 55.0143 120.594 55.2724 120.49C55.5252 120.388 55.7139 120.376 55.769 120.376V132.16C58.489 132.16 61.0501 131.177 63.0477 129.179L54.7152 120.847ZM55.769 120.376C55.8254 120.376 55.9973 120.388 56.2229 120.478C56.4512 120.568 56.61 120.689 56.6902 120.766L48.5226 129.26C50.5214 131.182 53.0518 132.16 55.769 132.16V120.376ZM56.7726 120.847C56.8578 120.932 56.9886 121.1 57.0862 121.34C57.1822 121.576 57.1931 121.752 57.1931 121.8H45.4091C45.4091 124.576 46.4243 127.164 48.4401 129.179L56.7726 120.847ZM74.9456 70.1254C73.9346 70.1254 73.1199 69.8942 72.3797 69.4648L66.4674 79.6584C69.0739 81.1701 71.9406 81.9094 74.9456 81.9094V70.1254ZM72.5001 69.5366C71.6546 69.0189 71.0004 68.3647 70.4827 67.5192L60.4327 73.6723C61.9231 76.1065 63.9128 78.0962 66.347 79.5866L72.5001 69.5366ZM70.5545 67.6396C70.1251 66.8994 69.8939 66.0847 69.8939 65.0737H58.1099C58.1099 68.0787 58.8492 70.9454 60.3609 73.5519L70.5545 67.6396ZM69.8939 65.0737C69.8939 64.0099 70.1339 63.2189 70.5282 62.5526L60.3872 56.5507C58.8404 59.1642 58.1099 62.0545 58.1099 65.0737H69.8939ZM70.4827 62.6282C70.9895 61.8004 71.6196 61.1828 72.4245 60.7065L66.4226 50.5655C63.9477 52.0302 61.9339 54.0231 60.4327 56.4751L70.4827 62.6282ZM72.455 60.6883C73.1851 60.2502 73.973 60.022 74.9456 60.022V48.238C71.9022 48.238 69.0087 49.0137 66.3921 50.5836L72.455 60.6883ZM74.9456 60.022C75.9182 60.022 76.6691 60.2497 77.3409 60.661L83.494 50.611C80.886 49.0143 77.989 48.238 74.9456 48.238V60.022ZM77.4613 60.7328C78.2759 61.2052 78.8641 61.7944 79.3128 62.5526L89.4538 56.5507C87.9614 54.0291 85.9057 52.0078 83.3736 50.5392L77.4613 60.7328ZM79.3583 62.6282C79.7599 63.2842 79.9973 64.0481 79.9973 65.0737H91.7813C91.7813 62.0163 91.0147 59.0989 89.4083 56.4751L79.3583 62.6282ZM79.9973 65.0737C79.9973 66.0463 79.7691 66.8342 79.331 67.5643L89.4357 73.6272C91.0056 71.0106 91.7813 68.1171 91.7813 65.0737H79.9973ZM79.3128 67.5948C78.8533 68.3712 78.2409 68.9964 77.3861 69.5093L83.4489 79.6139C85.9408 78.1188 87.9722 76.1001 89.4538 73.5967L79.3128 67.5948ZM77.4165 69.4911C76.7349 69.8945 75.9569 70.1254 74.9456 70.1254V81.9094C77.9503 81.9094 80.8203 81.1698 83.4184 79.6321L77.4165 69.4911Z" fill="black" mask="url(#path-17-outside-7_3683_23747)"/>
</g>
</svg>
