<svg width="39" height="40" viewBox="0 0 39 40" fill="none" xmlns="http://www.w3.org/2000/svg">
<path d="M14.8008 19.4287C16.3008 19.4287 17.6953 19.5928 18.9844 19.9209C20.2852 20.2373 21.4746 20.6709 22.5527 21.2217C21.2871 22.2646 20.2734 23.542 19.5117 25.0537C18.7617 26.5654 18.3867 28.2002 18.3867 29.958C18.3867 30.8721 18.498 31.7393 18.7207 32.5596H3.76172C2.36719 32.5596 1.38867 32.3604 0.826172 31.9619C0.275391 31.5752 0 30.9951 0 30.2217C0 29.0967 0.339844 27.9072 1.01953 26.6533C1.71094 25.3994 2.69531 24.2275 3.97266 23.1377C5.26172 22.0361 6.81445 21.1455 8.63086 20.4658C10.459 19.7744 12.5156 19.4287 14.8008 19.4287ZM14.7832 16.2822C13.5293 16.2822 12.3691 15.9424 11.3027 15.2627C10.2363 14.5713 9.375 13.6396 8.71875 12.4678C8.07422 11.2959 7.75195 9.97754 7.75195 8.5127C7.75195 7.07129 8.07422 5.78223 8.71875 4.64551C9.375 3.49707 10.2363 2.59473 11.3027 1.93848C12.3691 1.28223 13.5293 0.954102 14.7832 0.954102C16.0371 0.954102 17.1973 1.28809 18.2637 1.95605C19.3301 2.62402 20.1855 3.53223 20.8301 4.68066C21.4863 5.8291 21.8145 7.11816 21.8145 8.54785C21.8145 10.001 21.4863 11.3135 20.8301 12.4854C20.1855 13.6455 19.3301 14.5713 18.2637 15.2627C17.1973 15.9424 16.0371 16.2822 14.7832 16.2822ZM28.9863 39.0459C28.7168 39.0459 28.4766 38.9639 28.2656 38.7998C28.0664 38.6475 27.9434 38.4365 27.8965 38.167L27.4922 36.4443C27.375 36.4092 27.252 36.3682 27.123 36.3213C27.0059 36.2744 26.8711 36.21 26.7188 36.1279L25.1895 37.0596C24.9551 37.2002 24.7148 37.2646 24.4688 37.2529C24.2227 37.2412 24 37.1299 23.8008 36.9189L22.7812 35.8643C22.5938 35.6768 22.4883 35.46 22.4648 35.2139C22.4531 34.9678 22.5176 34.7217 22.6582 34.4756L23.5547 32.9463C23.5078 32.8174 23.4551 32.6943 23.3965 32.5771C23.3496 32.4717 23.3027 32.3604 23.2559 32.2432L21.5156 31.8213C21.2461 31.751 21.0293 31.6162 20.8652 31.417C20.7129 31.2295 20.6367 30.9951 20.6367 30.7139V29.2197C20.6367 28.9736 20.7129 28.7568 20.8652 28.5693C21.0293 28.3701 21.2461 28.2354 21.5156 28.165L23.2383 27.7432C23.2852 27.6143 23.332 27.4912 23.3789 27.374C23.4375 27.2451 23.4902 27.1279 23.5371 27.0225L22.5703 25.458C22.4297 25.2354 22.377 25.001 22.4121 24.7549C22.459 24.4971 22.5762 24.2744 22.7637 24.0869L23.8008 23.0498C24 22.8506 24.2227 22.7334 24.4688 22.6982C24.7266 22.6631 24.9551 22.7158 25.1543 22.8564L26.6836 23.8232C26.8125 23.7412 26.9414 23.6826 27.0703 23.6475C27.1992 23.6006 27.3398 23.5479 27.4922 23.4893L27.8965 21.749C27.9434 21.5029 28.0664 21.2979 28.2656 21.1338C28.4766 20.958 28.7168 20.8701 28.9863 20.8701H30.498C30.7676 20.8701 31.002 20.9521 31.2012 21.1162C31.4004 21.2803 31.5293 21.4912 31.5879 21.749L32.0098 23.5068C32.127 23.5537 32.25 23.6006 32.3789 23.6475C32.5078 23.6826 32.6426 23.7412 32.7832 23.8232L34.3301 22.8564C34.541 22.7158 34.7695 22.6631 35.0156 22.6982C35.2617 22.7334 35.4844 22.8506 35.6836 23.0498L36.7559 24.0869C36.9434 24.2627 37.0488 24.4795 37.0723 24.7373C37.0957 24.9951 37.0371 25.2354 36.8965 25.458L35.9473 27.0225C35.9941 27.1279 36.041 27.2393 36.0879 27.3564C36.1465 27.4619 36.2051 27.5908 36.2637 27.7432L37.9688 28.165C38.2383 28.2354 38.4551 28.3643 38.6191 28.5518C38.7832 28.7393 38.8652 28.9619 38.8652 29.2197V30.7139C38.8652 30.9951 38.7832 31.2295 38.6191 31.417C38.4668 31.6162 38.25 31.751 37.9688 31.8213L36.2285 32.2432C36.1934 32.3604 36.1523 32.4717 36.1055 32.5771C36.0586 32.6943 36 32.8174 35.9297 32.9463L36.8262 34.458C36.9785 34.7158 37.043 34.9619 37.0195 35.1963C37.0078 35.4424 36.9082 35.665 36.7207 35.8643L35.6836 36.9189C35.4727 37.1299 35.2441 37.2412 34.998 37.2529C34.7637 37.2646 34.5293 37.2002 34.2949 37.0596L32.7832 36.1279C32.666 36.1982 32.5371 36.2568 32.3965 36.3037C32.2559 36.3623 32.127 36.4092 32.0098 36.4443L31.5879 38.167C31.5293 38.4482 31.4004 38.665 31.2012 38.8174C31.002 38.9697 30.7676 39.0459 30.498 39.0459H28.9863ZM29.7598 32.8936C30.5449 32.8936 31.2246 32.6064 31.7988 32.0322C32.3848 31.4697 32.6777 30.7842 32.6777 29.9756C32.6777 29.167 32.3848 28.4697 31.7988 27.8838C31.2246 27.2979 30.5449 27.0107 29.7598 27.0225C28.9277 27.0342 28.2305 27.3271 27.668 27.9014C27.1055 28.4756 26.8242 29.167 26.8242 29.9756C26.8242 30.7842 27.1055 31.4697 27.668 32.0322C28.2305 32.6064 28.9277 32.8936 29.7598 32.8936Z" fill="#343434"/>
</svg>
