<svg width="54" height="46" viewBox="0 0 54 46" fill="none" xmlns="http://www.w3.org/2000/svg">
<path d="M31.4033 2.21045C32.1068 2.21051 32.796 2.36422 33.4609 2.64502L33.7178 2.76123C34.3022 3.04452 34.8312 3.43058 35.3066 3.90283H35.3076L50.9629 18.9907H50.9639C52.0915 20.0583 52.6504 21.4302 52.6504 23.0005C52.6503 24.5704 52.0915 25.944 50.9727 27.0239L50.9717 27.0249L35.292 42.1108L35.293 42.1118C34.2007 43.1857 32.8908 43.7904 31.4033 43.7905C29.8413 43.7905 28.4516 43.3228 27.376 42.2847L27.3662 42.2749C26.3358 41.2592 25.8203 39.9762 25.8203 38.519C25.8203 37.7019 25.9913 36.9219 26.3691 36.2153L26.5 35.9829C26.8084 35.4633 27.1923 34.9978 27.6455 34.5874L33.0947 29.3521L33.1123 29.3345L33.1309 29.3179L34.1084 28.4438L32.9053 28.5044L32.8711 28.5054H7.2002C5.57957 28.5054 4.13604 28.0519 3.00879 27.0278L2.99902 27.019L2.98828 27.0093C1.87403 25.9551 1.35068 24.5735 1.35059 23.0005C1.35059 21.4374 1.87826 20.0663 2.99902 19.0278C4.12542 17.9836 5.57254 17.5181 7.2002 17.5181H32.8701L32.9023 17.519L34.1299 17.5767L33.1289 16.6802L33.1113 16.6646L33.0947 16.6479L27.6455 11.4126V11.4116C27.1925 11.0013 26.8083 10.5365 26.5 10.0171L26.3691 9.78467C25.9888 9.07336 25.8203 8.28426 25.8203 7.45752C25.8203 6.01017 26.34 4.73776 27.3662 3.72607L27.3711 3.72021L27.376 3.71533C28.4515 2.67722 29.8414 2.21045 31.4033 2.21045Z" fill="white" stroke="black" stroke-width="2.7"/>
</svg>
