<svg width="320" height="80" viewBox="0 0 320 80" fill="none" xmlns="http://www.w3.org/2000/svg">
<mask id="path-1-outside-1_4632_22157" maskUnits="userSpaceOnUse" x="17.6401" y="3.55981" width="285" height="75" fill="black">
<rect fill="white" x="17.6401" y="3.55981" width="285" height="75"/>
<path d="M187.11 30.4781H225.583V52.2683H187.11V30.4781Z"/>
<path d="M243.969 30.4781H282.442V52.2683H243.969V30.4781Z"/>
<path d="M25.9354 26.4455C25.9354 19.3549 32.7534 10.5598 45.9803 10.5598C50.3437 10.5598 55.2531 12.4685 56.2758 12.4685C57.2301 12.4685 58.1844 11.5141 59.6164 11.5141C61.9344 11.5141 67.1163 16.7645 67.1163 22.4915C67.1163 24.8094 65.6159 27.1273 63.0939 27.1273C58.5253 27.1273 55.8665 19.3549 48.7759 19.3549C46.6621 19.3549 44.4126 20.3092 44.4126 22.764C44.4126 28.15 53.7537 26.718 61.6619 31.9684C65.8895 34.764 68.0023 38.173 68.0023 43.2866C68.0023 51.2642 61.4567 60.2634 45.571 60.2634C41.0709 60.2634 33.3669 59.1039 29.4801 56.9911C26.2079 55.1498 24.6401 47.9225 24.6401 44.445C24.6401 42.6037 25.4587 40.7635 27.5041 40.7635C32.3452 40.7635 31.5266 51.604 44.0717 51.604C45.572 51.604 49.322 50.8538 49.322 48.2634C49.322 43.3539 39.9808 44.5818 32.4136 38.5139C28.6636 35.5142 25.9364 31.355 25.9364 26.4466L25.9354 26.4455Z"/>
<path d="M74.0008 45.8087C74.0008 38.6497 73.5915 37.0819 73.2506 36.741C72.3647 35.8551 68.6821 36.741 68.6821 32.8543C68.6821 28.2184 82.7275 24.6726 87.7727 24.6726C89.4088 24.6726 89.6813 25.2176 89.6813 26.718C89.6813 27.1957 89.7497 28.15 90.4315 28.15C91.3858 28.15 95.2042 24.4685 100.795 24.4685C109.727 24.4685 114.5 33.4004 114.5 41.3769C114.5 50.5129 108.023 60.2634 98.0682 60.2634C94.8633 60.2634 91.6594 58.5589 91.046 58.5589C90.0917 58.5589 89.9549 59.9909 89.9549 60.7411C89.9549 65.923 94.1825 64.2869 94.1825 67.6276C94.1825 71.4459 87.9779 71.9225 85.319 71.9225C76.183 71.9225 69.024 68.5819 69.024 65.1045C69.024 62.0363 71.8197 63.1958 73.0465 60.5359C73.7283 59.1039 74.0008 57.1269 74.0008 49.5586V45.8087ZM92.6821 34.5588C90.2274 34.5588 89.4099 35.5815 89.4099 47.9909C89.4099 50.2404 90.501 51.059 92.8873 51.059C97.1139 51.059 97.66 46.4905 97.66 43.2182C97.66 39.9459 96.9782 34.5588 92.6832 34.5588H92.6821Z"/>
<path d="M135.575 47.1049C135.575 48.3318 135.507 50.5824 135.848 51.6735C136.598 54.1282 139.666 52.9687 139.666 55.8327C139.666 60.4012 131.348 60.0603 128.416 60.0603C125.485 60.0603 115.803 60.4012 115.803 55.5602C115.803 53.1739 118.734 54.0598 119.553 51.5377C120.439 48.7421 120.439 40.2195 120.439 36.8789C120.439 34.22 120.575 29.1065 119.961 26.0383C118.938 20.9932 114.916 22.7661 114.916 18.8793C114.916 12.9472 132.643 11.5162 133.597 11.5162C135.915 11.5162 136.461 13.0166 136.461 15.0621C136.461 16.6298 135.575 24.1297 135.575 33.8802V47.107V47.1049Z"/>
<path d="M162.301 46.8341C162.301 54.879 166.324 51.9476 166.324 55.5608C166.324 60.1967 157.665 60.1967 154.596 60.1967C142.869 60.1967 142.392 57.5378 142.392 55.9017C142.392 53.447 145.188 53.3113 146.005 51.1974C146.891 48.8111 147.028 38.9249 146.278 36.4018C145.664 34.0154 142.187 34.7656 142.187 31.6975C142.187 26.8565 159.505 24.811 160.187 24.811C162.232 24.811 162.3 26.3788 162.3 27.8108V46.833L162.301 46.8341ZM148.802 22.6299C145.938 22.6299 142.87 21.3347 142.87 17.994C142.87 13.4939 151.87 11.6536 155.347 11.6536C158.074 11.6536 161.96 12.5396 161.96 15.9486C161.96 21.2663 152.688 22.6299 148.802 22.6299Z"/>
<path d="M188.644 44.7202C188.644 49.2888 190.552 50.3788 192.394 50.3788C194.508 50.3788 195.734 48.8111 196.962 48.8111C198.326 48.8111 199.28 50.7197 199.28 51.9476C199.28 56.4478 191.508 60.4018 184.621 60.4018C181.144 60.4018 172.417 58.9014 172.417 48.0609V34.0154C172.417 32.7886 172.417 32.3109 172.076 32.1068C171.735 31.9027 170.985 32.0384 169.417 32.0384C167.645 32.0384 166.759 32.1068 166.418 31.7659C165.94 31.2882 166.077 30.6064 166.077 29.0387C166.077 28.0843 165.873 27.3341 166.69 26.7891L182.235 16.9029C183.803 15.9486 183.735 16.1527 185.781 16.1527C188.508 16.1527 188.645 15.8802 188.645 19.0167C188.645 21.1305 188.508 23.2444 188.849 24.0619C189.053 24.6069 189.531 24.6069 191.304 24.6069H196.076C199.008 24.6069 199.008 24.811 199.008 27.8792C199.008 31.7659 198.53 32.0384 195.871 32.0384H191.167C188.781 32.0384 188.644 32.1068 188.644 34.5615V44.7202Z"/>
<path d="M230.817 45.7403C230.817 53.7852 234.84 50.8538 234.84 54.467C234.84 59.1029 226.181 59.1029 223.112 59.1029C211.385 59.1029 210.908 56.444 210.908 54.8079C210.908 52.3532 213.704 52.2174 214.521 50.1036C215.407 47.7173 215.544 37.8311 214.794 35.308C214.18 32.9216 210.703 33.6718 210.703 30.6037C210.703 25.7627 228.021 23.7172 228.702 23.7172C230.748 23.7172 230.816 25.285 230.816 26.717V45.7392L230.817 45.7403ZM217.318 21.5361C214.454 21.5361 211.386 20.2409 211.386 16.9002C211.386 12.4001 220.386 10.5598 223.862 10.5598C226.59 10.5598 230.476 11.4457 230.476 14.8548C230.476 20.1725 221.204 21.5361 217.318 21.5361Z"/>
<path d="M256.745 43.6264C256.745 48.195 258.654 49.285 260.495 49.285C262.609 49.285 263.835 47.7173 265.063 47.7173C266.427 47.7173 267.381 49.6259 267.381 50.8538C267.381 55.354 259.609 59.308 252.722 59.308C249.245 59.308 240.518 57.8076 240.518 46.9671V32.9216C240.518 31.6948 240.518 31.2171 240.177 31.013C239.836 30.8089 239.086 30.9446 237.519 30.9446C235.746 30.9446 234.86 31.013 234.519 30.6721C234.041 30.1944 234.178 29.5126 234.178 27.9449C234.178 26.9905 233.974 26.2403 234.791 25.6953L250.336 15.8091C251.904 14.8548 251.836 15.0589 253.882 15.0589C256.609 15.0589 256.746 14.7864 256.746 17.9229C256.746 20.0367 256.609 22.1506 256.95 22.9681C257.154 23.5131 257.632 23.5131 259.405 23.5131H264.177C267.109 23.5131 267.109 23.7172 267.109 26.7854C267.109 30.6721 266.631 30.9446 263.972 30.9446H259.268C256.882 30.9446 256.745 31.013 256.745 33.4677V43.6264Z"/>
<path d="M288.679 37.0526C287.77 38.161 284.383 41.8838 282.729 41.4714C281.075 41.059 279.832 36.1816 279.55 34.7765C278.605 30.6762 278.32 25.335 279.343 21.2329C280.563 16.3376 284.182 11.6889 289.805 13.0909C295.428 14.4929 296.441 20.2963 295.22 25.1916C294.197 29.2937 291.439 33.876 288.679 37.0526ZM278.115 59.9748C274.08 58.9686 271.597 54.8361 272.603 50.8004C273.609 46.7647 277.742 44.2816 281.777 45.2878C285.813 46.2941 288.296 50.4266 287.29 54.4623C286.284 58.4979 282.151 60.981 278.115 59.9748Z"/>
</mask>
<path d="M187.11 30.4781H225.583V52.2683H187.11V30.4781Z" fill="black"/>
<path d="M243.969 30.4781H282.442V52.2683H243.969V30.4781Z" fill="black"/>
<path d="M187.11 30.4781H225.583V52.2683H187.11V30.4781Z" stroke="black" stroke-width="12.484" mask="url(#path-1-outside-1_4632_22157)"/>
<path d="M243.969 30.4781H282.442V52.2683H243.969V30.4781Z" stroke="black" stroke-width="12.484" mask="url(#path-1-outside-1_4632_22157)"/>
<path d="M25.9354 26.4455C25.9354 19.3549 32.7534 10.5598 45.9803 10.5598C50.3437 10.5598 55.2531 12.4685 56.2758 12.4685C57.2301 12.4685 58.1844 11.5141 59.6164 11.5141C61.9344 11.5141 67.1163 16.7645 67.1163 22.4915C67.1163 24.8094 65.6159 27.1273 63.0939 27.1273C58.5253 27.1273 55.8665 19.3549 48.7759 19.3549C46.6621 19.3549 44.4126 20.3092 44.4126 22.764C44.4126 28.15 53.7537 26.718 61.6619 31.9684C65.8895 34.764 68.0023 38.173 68.0023 43.2866C68.0023 51.2642 61.4567 60.2634 45.571 60.2634C41.0709 60.2634 33.3669 59.1039 29.4801 56.9911C26.2079 55.1498 24.6401 47.9225 24.6401 44.445C24.6401 42.6037 25.4587 40.7635 27.5041 40.7635C32.3452 40.7635 31.5266 51.604 44.0717 51.604C45.572 51.604 49.322 50.8538 49.322 48.2634C49.322 43.3539 39.9808 44.5818 32.4136 38.5139C28.6636 35.5142 25.9364 31.355 25.9364 26.4466L25.9354 26.4455Z" stroke="black" stroke-width="12.484" mask="url(#path-1-outside-1_4632_22157)"/>
<path d="M74.0008 45.8087C74.0008 38.6497 73.5915 37.0819 73.2506 36.741C72.3647 35.8551 68.6821 36.741 68.6821 32.8543C68.6821 28.2184 82.7275 24.6726 87.7727 24.6726C89.4088 24.6726 89.6813 25.2176 89.6813 26.718C89.6813 27.1957 89.7497 28.15 90.4315 28.15C91.3858 28.15 95.2042 24.4685 100.795 24.4685C109.727 24.4685 114.5 33.4004 114.5 41.3769C114.5 50.5129 108.023 60.2634 98.0682 60.2634C94.8633 60.2634 91.6594 58.5589 91.046 58.5589C90.0917 58.5589 89.9549 59.9909 89.9549 60.7411C89.9549 65.923 94.1825 64.2869 94.1825 67.6276C94.1825 71.4459 87.9779 71.9225 85.319 71.9225C76.183 71.9225 69.024 68.5819 69.024 65.1045C69.024 62.0363 71.8197 63.1958 73.0465 60.5359C73.7283 59.1039 74.0008 57.1269 74.0008 49.5586V45.8087ZM92.6821 34.5588C90.2274 34.5588 89.4099 35.5815 89.4099 47.9909C89.4099 50.2404 90.501 51.059 92.8873 51.059C97.1139 51.059 97.66 46.4905 97.66 43.2182C97.66 39.9459 96.9782 34.5588 92.6832 34.5588H92.6821Z" stroke="black" stroke-width="12.484" mask="url(#path-1-outside-1_4632_22157)"/>
<path d="M135.575 47.1049C135.575 48.3318 135.507 50.5824 135.848 51.6735C136.598 54.1282 139.666 52.9687 139.666 55.8327C139.666 60.4012 131.348 60.0603 128.416 60.0603C125.485 60.0603 115.803 60.4012 115.803 55.5602C115.803 53.1739 118.734 54.0598 119.553 51.5377C120.439 48.7421 120.439 40.2195 120.439 36.8789C120.439 34.22 120.575 29.1065 119.961 26.0383C118.938 20.9932 114.916 22.7661 114.916 18.8793C114.916 12.9472 132.643 11.5162 133.597 11.5162C135.915 11.5162 136.461 13.0166 136.461 15.0621C136.461 16.6298 135.575 24.1297 135.575 33.8802V47.107V47.1049Z" stroke="black" stroke-width="12.484" mask="url(#path-1-outside-1_4632_22157)"/>
<path d="M162.301 46.8341C162.301 54.879 166.324 51.9476 166.324 55.5608C166.324 60.1967 157.665 60.1967 154.596 60.1967C142.869 60.1967 142.392 57.5378 142.392 55.9017C142.392 53.447 145.188 53.3113 146.005 51.1974C146.891 48.8111 147.028 38.9249 146.278 36.4018C145.664 34.0154 142.187 34.7656 142.187 31.6975C142.187 26.8565 159.505 24.811 160.187 24.811C162.232 24.811 162.3 26.3788 162.3 27.8108V46.833L162.301 46.8341ZM148.802 22.6299C145.938 22.6299 142.87 21.3347 142.87 17.994C142.87 13.4939 151.87 11.6536 155.347 11.6536C158.074 11.6536 161.96 12.5396 161.96 15.9486C161.96 21.2663 152.688 22.6299 148.802 22.6299Z" stroke="black" stroke-width="12.484" mask="url(#path-1-outside-1_4632_22157)"/>
<path d="M188.644 44.7202C188.644 49.2888 190.552 50.3788 192.394 50.3788C194.508 50.3788 195.734 48.8111 196.962 48.8111C198.326 48.8111 199.28 50.7197 199.28 51.9476C199.28 56.4478 191.508 60.4018 184.621 60.4018C181.144 60.4018 172.417 58.9014 172.417 48.0609V34.0154C172.417 32.7886 172.417 32.3109 172.076 32.1068C171.735 31.9027 170.985 32.0384 169.417 32.0384C167.645 32.0384 166.759 32.1068 166.418 31.7659C165.94 31.2882 166.077 30.6064 166.077 29.0387C166.077 28.0843 165.873 27.3341 166.69 26.7891L182.235 16.9029C183.803 15.9486 183.735 16.1527 185.781 16.1527C188.508 16.1527 188.645 15.8802 188.645 19.0167C188.645 21.1305 188.508 23.2444 188.849 24.0619C189.053 24.6069 189.531 24.6069 191.304 24.6069H196.076C199.008 24.6069 199.008 24.811 199.008 27.8792C199.008 31.7659 198.53 32.0384 195.871 32.0384H191.167C188.781 32.0384 188.644 32.1068 188.644 34.5615V44.7202Z" stroke="black" stroke-width="12.484" mask="url(#path-1-outside-1_4632_22157)"/>
<path d="M230.817 45.7403C230.817 53.7852 234.84 50.8538 234.84 54.467C234.84 59.1029 226.181 59.1029 223.112 59.1029C211.385 59.1029 210.908 56.444 210.908 54.8079C210.908 52.3532 213.704 52.2174 214.521 50.1036C215.407 47.7173 215.544 37.8311 214.794 35.308C214.18 32.9216 210.703 33.6718 210.703 30.6037C210.703 25.7627 228.021 23.7172 228.702 23.7172C230.748 23.7172 230.816 25.285 230.816 26.717V45.7392L230.817 45.7403ZM217.318 21.5361C214.454 21.5361 211.386 20.2409 211.386 16.9002C211.386 12.4001 220.386 10.5598 223.862 10.5598C226.59 10.5598 230.476 11.4457 230.476 14.8548C230.476 20.1725 221.204 21.5361 217.318 21.5361Z" stroke="black" stroke-width="12.484" mask="url(#path-1-outside-1_4632_22157)"/>
<path d="M256.745 43.6264C256.745 48.195 258.654 49.285 260.495 49.285C262.609 49.285 263.835 47.7173 265.063 47.7173C266.427 47.7173 267.381 49.6259 267.381 50.8538C267.381 55.354 259.609 59.308 252.722 59.308C249.245 59.308 240.518 57.8076 240.518 46.9671V32.9216C240.518 31.6948 240.518 31.2171 240.177 31.013C239.836 30.8089 239.086 30.9446 237.519 30.9446C235.746 30.9446 234.86 31.013 234.519 30.6721C234.041 30.1944 234.178 29.5126 234.178 27.9449C234.178 26.9905 233.974 26.2403 234.791 25.6953L250.336 15.8091C251.904 14.8548 251.836 15.0589 253.882 15.0589C256.609 15.0589 256.746 14.7864 256.746 17.9229C256.746 20.0367 256.609 22.1506 256.95 22.9681C257.154 23.5131 257.632 23.5131 259.405 23.5131H264.177C267.109 23.5131 267.109 23.7172 267.109 26.7854C267.109 30.6721 266.631 30.9446 263.972 30.9446H259.268C256.882 30.9446 256.745 31.013 256.745 33.4677V43.6264Z" stroke="black" stroke-width="12.484" mask="url(#path-1-outside-1_4632_22157)"/>
<path d="M288.679 37.0526C287.77 38.161 284.383 41.8838 282.729 41.4714C281.075 41.059 279.832 36.1816 279.55 34.7765C278.605 30.6762 278.32 25.335 279.343 21.2329C280.563 16.3376 284.182 11.6889 289.805 13.0909C295.428 14.4929 296.441 20.2963 295.22 25.1916C294.197 29.2937 291.439 33.876 288.679 37.0526ZM278.115 59.9748C274.08 58.9686 271.597 54.8361 272.603 50.8004C273.609 46.7647 277.742 44.2816 281.777 45.2878C285.813 46.2941 288.296 50.4266 287.29 54.4623C286.284 58.4979 282.151 60.981 278.115 59.9748Z" stroke="black" stroke-width="12.484" mask="url(#path-1-outside-1_4632_22157)"/>
<path d="M25.9354 26.4455C25.9354 19.3549 32.7534 10.5598 45.9803 10.5598C50.3437 10.5598 55.2531 12.4685 56.2758 12.4685C57.2301 12.4685 58.1844 11.5141 59.6164 11.5141C61.9344 11.5141 67.1163 16.7645 67.1163 22.4915C67.1163 24.8094 65.6159 27.1273 63.0939 27.1273C58.5253 27.1273 55.8665 19.3549 48.7759 19.3549C46.6621 19.3549 44.4126 20.3092 44.4126 22.764C44.4126 28.15 53.7537 26.718 61.6619 31.9684C65.8895 34.764 68.0023 38.173 68.0023 43.2866C68.0023 51.2642 61.4567 60.2634 45.571 60.2634C41.0709 60.2634 33.3669 59.1039 29.4801 56.9911C26.2079 55.1498 24.6401 47.9225 24.6401 44.445C24.6401 42.6037 25.4587 40.7635 27.5041 40.7635C32.3452 40.7635 31.5266 51.604 44.0717 51.604C45.572 51.604 49.322 50.8538 49.322 48.2634C49.322 43.3539 39.9808 44.5818 32.4136 38.5139C28.6636 35.5142 25.9364 31.355 25.9364 26.4466L25.9354 26.4455Z" fill="white"/>
<path d="M74.0008 45.8086C74.0008 38.6497 73.5915 37.0819 73.2506 36.741C72.3647 35.8551 68.6821 36.741 68.6821 32.8543C68.6821 28.2184 82.7275 24.6726 87.7727 24.6726C89.4088 24.6726 89.6813 25.2176 89.6813 26.718C89.6813 27.1957 89.7497 28.15 90.4315 28.15C91.3858 28.15 95.2042 24.4685 100.795 24.4685C109.727 24.4685 114.5 33.4004 114.5 41.3769C114.5 50.5129 108.023 60.2634 98.0682 60.2634C94.8633 60.2634 91.6594 58.5589 91.046 58.5589C90.0917 58.5589 89.9549 59.9909 89.9549 60.7411C89.9549 65.923 94.1825 64.2869 94.1825 67.6276C94.1825 71.4459 87.9779 71.9225 85.319 71.9225C76.183 71.9225 69.024 68.5819 69.024 65.1045C69.024 62.0363 71.8197 63.1958 73.0465 60.5359C73.7283 59.1039 74.0008 57.1269 74.0008 49.5586V45.8086ZM92.6821 34.5588C90.2274 34.5588 89.4099 35.5815 89.4099 47.9909C89.4099 50.2404 90.501 51.059 92.8873 51.059C97.1139 51.059 97.66 46.4905 97.66 43.2182C97.66 39.9459 96.9771 34.5588 92.6821 34.5588Z" fill="white"/>
<path d="M135.575 47.1049C135.575 48.3318 135.507 50.5824 135.848 51.6735C136.598 54.1282 139.666 52.9687 139.666 55.8327C139.666 60.4012 131.348 60.0603 128.416 60.0603C125.485 60.0603 115.803 60.4012 115.803 55.5602C115.803 53.1739 118.734 54.0598 119.553 51.5377C120.439 48.7421 120.439 40.2195 120.439 36.8789C120.439 34.22 120.575 29.1065 119.961 26.0383C118.938 20.9932 114.916 22.7661 114.916 18.8793C114.916 12.9472 132.643 11.5162 133.597 11.5162C135.915 11.5162 136.461 13.0166 136.461 15.0621C136.461 16.6298 135.575 24.1297 135.575 33.8802V47.107V47.1049Z" fill="white"/>
<path d="M162.301 46.8341C162.301 54.879 166.324 51.9476 166.324 55.5608C166.324 60.1967 157.665 60.1967 154.596 60.1967C142.869 60.1967 142.392 57.5378 142.392 55.9017C142.392 53.447 145.188 53.3113 146.005 51.1974C146.891 48.8111 147.028 38.9249 146.278 36.4018C145.664 34.0154 142.187 34.7656 142.187 31.6975C142.187 26.8565 159.505 24.811 160.187 24.811C162.232 24.811 162.3 26.3788 162.3 27.8108V46.833L162.301 46.8341ZM148.802 22.6299C145.938 22.6299 142.87 21.3347 142.87 17.994C142.87 13.4939 151.87 11.6536 155.347 11.6536C158.074 11.6536 161.96 12.5396 161.96 15.9486C161.96 21.2663 152.688 22.6299 148.802 22.6299Z" fill="white"/>
<path d="M188.644 44.7202C188.644 49.2888 190.552 50.3788 192.394 50.3788C194.508 50.3788 195.734 48.8111 196.962 48.8111C198.326 48.8111 199.28 50.7197 199.28 51.9476C199.28 56.4478 191.508 60.4018 184.621 60.4018C181.144 60.4018 172.417 58.9014 172.417 48.0609V34.0154C172.417 32.7886 172.417 32.3109 172.076 32.1068C171.735 31.9027 170.985 32.0384 169.417 32.0384C167.645 32.0384 166.759 32.1068 166.418 31.7659C165.94 31.2882 166.077 30.6064 166.077 29.0387C166.077 28.0843 165.873 27.3341 166.69 26.7891L182.235 16.9029C183.803 15.9486 183.735 16.1527 185.781 16.1527C188.508 16.1527 188.645 15.8802 188.645 19.0167C188.645 21.1305 188.508 23.2444 188.849 24.0619C189.053 24.6069 189.531 24.6069 191.304 24.6069H196.076C199.008 24.6069 199.008 24.811 199.008 27.8792C199.008 31.7659 198.53 32.0384 195.871 32.0384H191.167C188.781 32.0384 188.644 32.1068 188.644 34.5615V44.7202Z" fill="white"/>
<path d="M230.817 45.7403C230.817 53.7852 234.84 50.8538 234.84 54.467C234.84 59.1028 226.181 59.1029 223.112 59.1029C211.385 59.1029 210.908 56.444 210.908 54.8079C210.908 52.3532 213.704 52.2174 214.521 50.1036C215.407 47.7173 215.544 37.8311 214.794 35.308C214.18 32.9216 210.703 33.6718 210.703 30.6037C210.703 25.7627 228.021 23.7172 228.702 23.7172C230.748 23.7172 230.816 25.285 230.816 26.717V45.7392L230.817 45.7403ZM217.318 21.5361C214.454 21.5361 211.386 20.2409 211.386 16.9002C211.386 12.4001 220.386 10.5598 223.862 10.5598C226.59 10.5598 230.476 11.4457 230.476 14.8548C230.476 20.1725 221.204 21.5361 217.318 21.5361Z" fill="white"/>
<path d="M256.745 43.6264C256.745 48.195 258.654 49.285 260.495 49.285C262.609 49.285 263.835 47.7173 265.063 47.7173C266.427 47.7173 267.381 49.6259 267.381 50.8538C267.381 55.354 259.609 59.308 252.722 59.308C249.245 59.308 240.518 57.8076 240.518 46.9671V32.9216C240.518 31.6948 240.518 31.2171 240.177 31.013C239.836 30.8089 239.086 30.9446 237.519 30.9446C235.746 30.9446 234.86 31.013 234.519 30.6721C234.041 30.1944 234.178 29.5126 234.178 27.9449C234.178 26.9905 233.974 26.2403 234.791 25.6953L250.336 15.8091C251.904 14.8548 251.836 15.0589 253.882 15.0589C256.609 15.0589 256.746 14.7864 256.746 17.9229C256.746 20.0367 256.609 22.1505 256.95 22.9681C257.154 23.5131 257.632 23.5131 259.405 23.5131H264.177C267.109 23.5131 267.109 23.7172 267.109 26.7854C267.109 30.6721 266.631 30.9446 263.972 30.9446H259.268C256.882 30.9446 256.745 31.013 256.745 33.4677V43.6264Z" fill="white"/>
<path d="M288.679 37.0526C287.77 38.161 284.383 41.8838 282.729 41.4714C281.075 41.059 279.832 36.1816 279.55 34.7765C278.605 30.6762 278.32 25.335 279.343 21.2329C280.563 16.3376 284.182 11.6889 289.805 13.0909C295.428 14.4929 296.441 20.2963 295.22 25.1916C294.197 29.2937 291.439 33.876 288.679 37.0526ZM278.115 59.9748C274.08 58.9686 271.597 54.8361 272.603 50.8004C273.609 46.7647 277.742 44.2816 281.777 45.2878C285.813 46.2941 288.296 50.4266 287.29 54.4622C286.284 58.4979 282.151 60.981 278.115 59.9748Z" fill="white"/>
</svg>
